<svg id="レイヤー_1" data-name="レイヤー 1" xmlns="http://www.w3.org/2000/svg" viewBox="0 0 23.9 23.9"><defs><style>.cls-1{fill:#599bea;}.cls-2{fill:#3e7caf;}.cls-3{fill:#fff;}.cls-4{fill:none;stroke:#fff;stroke-linecap:round;stroke-linejoin:round;}</style></defs><circle class="cls-1" cx="11.95" cy="11.95" r="11.95"/><path class="cls-2" d="M16.67,18.49a1.4,1.4,0,0,1-1-.43c-.8-.82-.83-2.58-.81-3.3v-.24c0-.85.07-2.72.16-3.66H13.49a27.6,27.6,0,0,1-.61,5.95c-.25.83-.56,1.65-1.3,1.65a1.22,1.22,0,0,1-.5-.12,1.15,1.15,0,0,1-.52-.84A1.86,1.86,0,0,1,11,16.21c.13-.16.8-1.15.94-5.36-.77,0-.85.15-1.3.9l-.16.27a.43.43,0,0,1-.36.21.42.42,0,0,1-.35-.18.46.46,0,0,1-.05-.41,6.46,6.46,0,0,1,.9-1.88A2.11,2.11,0,0,1,12.44,9h5.68a.69.69,0,0,1,.66.7v.47a.68.68,0,0,1-.66.7H16.64a24.93,24.93,0,0,0-.26,4.24c.1,1.18.61,1.27.76,1.27a.85.85,0,0,0,.82-.78.43.43,0,0,1,.42-.35c.24,0,.36.16.38.34a3.37,3.37,0,0,1-.7,2.21,1.79,1.79,0,0,1-1.3.7Z" transform="translate(-0.05)"/><path class="cls-3" d="M14.42,9.24h3.7a.43.43,0,0,1,.41.45v.47a.43.43,0,0,1-.41.45H16.43a25.82,25.82,0,0,0-.29,4.51c.11,1.39.79,1.5,1,1.5h.06a1.08,1.08,0,0,0,1-1,.17.17,0,0,1,.17-.15h0a.12.12,0,0,1,.1.13c.08.53-.32,2.54-1.77,2.62h-.07c-1.6,0-1.6-2.83-1.58-3.47s.08-3.32.2-4.16h-2a29.6,29.6,0,0,1-.61,6.13c-.26.87-.53,1.47-1.06,1.47a.94.94,0,0,1-.4-.1c-.76-.59-.17-1.5,0-1.74s.89-1.32,1-5.77c-1.27,0-1.26.19-1.94,1.29a.17.17,0,0,1-.14.09h0a.19.19,0,0,1-.16-.26,6.24,6.24,0,0,1,.85-1.78,1.86,1.86,0,0,1,1.61-.7h2m0-.5h-2a2.32,2.32,0,0,0-2,.85,6.05,6.05,0,0,0-1,2,.68.68,0,0,0,.09.63.66.66,0,0,0,.54.29.68.68,0,0,0,.58-.33l.16-.27c.35-.58.44-.73.83-.77-.15,4-.8,4.85-.87,4.93a2.21,2.21,0,0,0-.53,1.49,1.42,1.42,0,0,0,.56,1,.6.6,0,0,0,.11.06,1.53,1.53,0,0,0,.6.14c1,0,1.33-1.15,1.54-1.83a26.62,26.62,0,0,0,.62-5.77h1c-.08,1-.12,2.6-.14,3.37v.28c0,.75,0,2.59.88,3.47a1.65,1.65,0,0,0,1.2.51h.1A2,2,0,0,0,18.26,18a3.63,3.63,0,0,0,.75-2.4.62.62,0,0,0-.5-.55h-.1a.69.69,0,0,0-.69.55c-.12.52-.43.57-.52.57h-.08c-.17,0-.42-.27-.49-1a22.94,22.94,0,0,1,.23-4h1.26a.93.93,0,0,0,.91-.95V9.69a.94.94,0,0,0-.91-.95Z" transform="translate(-0.05)"/><polyline class="cls-4" points="2.94 13.61 4.58 13.61 6.74 18.74 8.79 5.38 19.21 5.24"/></svg>