<svg id="レイヤー_1" data-name="レイヤー 1" xmlns="http://www.w3.org/2000/svg" viewBox="0 0 164.21 164.21"><defs><style>.cls-1{fill:#ef112c;}.cls-2{fill:#c1051b;}.cls-2,.cls-3,.cls-4{stroke:#fff;stroke-linecap:round;stroke-linejoin:round;stroke-width:6px;}.cls-3{fill:#fff;}.cls-4{fill:#e60012;}</style></defs><path class="cls-1" d="M82.89.16A82.11,82.11,0,1,0,165,82.27,82.11,82.11,0,0,0,82.89.16Z" transform="translate(-0.78 -0.16)"/><path class="cls-2" d="M75,90.6c-14.34-1.18-22,6.77-22.51,15.83S61,134.68,88.69,142.26c12,1.41,16.38-6.87,16.38-6.87,7.75-.71,11.45-4.58,13.38-10S125.85,75.5,92.56,72C71.78,73.3,75,90.6,75,90.6Z" transform="translate(-0.78 -0.16)"/><path class="cls-3" d="M64.65,79.15c.1-6.48,2.49-15.38,11.08-20.68C74.55,67.86,64.63,80.73,64.65,79.15Z" transform="translate(-0.78 -0.16)"/><path class="cls-4" d="M61,33.32V49.88" transform="translate(-0.78 -0.16)"/><line class="cls-4" x1="82.27" y1="22.94" x2="82.27" y2="36.33"/><line class="cls-4" x1="103.77" y1="33.2" x2="103.77" y2="60.56"/><line class="cls-4" x1="120.67" y1="52.06" x2="120.67" y2="75.83"/><line class="cls-4" x1="42.86" y1="71.63" x2="42.86" y2="85.4"/></svg>