<svg id="レイヤー_1" data-name="レイヤー 1" xmlns="http://www.w3.org/2000/svg" viewBox="0 0 137.61 145.69"><defs><style>.cls-1,.cls-2{fill:#fff;stroke:#9fa0a0;stroke-linejoin:round;}.cls-1{stroke-width:7px;}.cls-2{stroke-width:5px;}</style></defs><path class="cls-1" d="M104.72,14.43,136,45.66a4.34,4.34,0,0,1,1.28,3.08v98.75a4.36,4.36,0,0,1-4.35,4.36H29.37A4.36,4.36,0,0,1,25,147.49v-130a4.36,4.36,0,0,1,4.36-4.36h72.27A4.33,4.33,0,0,1,104.72,14.43Zm.47.17L104.9,30l-.21,11a4.36,4.36,0,0,0,4.4,4.45l11-.07,15.44-.1L120.34,29.94Z" transform="translate(-21.51 -9.65)"/><line class="cls-2" x1="22.06" y1="29.93" x2="81.49" y2="29.93"/><line class="cls-2" x1="22.06" y1="47.74" x2="97.32" y2="47.74"/><line class="cls-2" x1="22.06" y1="65.56" x2="96.69" y2="65.56"/><line class="cls-2" x1="22.06" y1="83.72" x2="97.32" y2="83.72"/><line class="cls-2" x1="22.06" y1="101.88" x2="97.32" y2="101.88"/><line class="cls-2" x1="22.06" y1="119.2" x2="67.91" y2="119.2"/><path class="cls-1" d="M139.77,16.45l15.86,8.8-42,75.82-15.86-8.8ZM97.72,92.27l-4,25.94,19.88-17.14" transform="translate(-21.51 -9.65)"/></svg>