<svg id="レイヤー_1" data-name="レイヤー 1" xmlns="http://www.w3.org/2000/svg" viewBox="0 0 169.52 239.38"><defs><style>.cls-1,.cls-2,.cls-4{fill:#fff;}.cls-1,.cls-4{stroke:#b5b5b6;stroke-miterlimit:10;}.cls-1{stroke-width:8px;}.cls-3{fill:#b5b5b6;}.cls-4{stroke-width:7px;}</style></defs><polygon class="cls-1" points="75.71 227.91 62.27 200.51 35.02 217.42 57.42 130.51 98.11 140.99 75.71 227.91"/><polygon class="cls-1" points="100.3 227.91 113.75 200.51 140.99 217.42 118.59 130.51 77.9 140.99 100.3 227.91"/><path class="cls-2" d="M139.56,173.7a3,3,0,0,1-2-.77l-6.22-5.63-6.22,5.63a3,3,0,0,1-2,.77h-.31a3,3,0,0,1-2.12-1.23l-4.92-6.79-7.25,4.2a3,3,0,0,1-1.51.41,2.91,2.91,0,0,1-.92-.15,3,3,0,0,1-1.82-1.64l-3.39-7.66-8,2.6a3,3,0,0,1-.94.15A3,3,0,0,1,89,161.2L87.29,153l-8.34.9h-.32a3,3,0,0,1-3-3l0-8.39-8.34-.86a3,3,0,0,1-2.12-1.22,3,3,0,0,1-.51-2.39l1.76-8.2-8-2.58a3,3,0,0,1-1.82-1.63,3,3,0,0,1,0-2.45l3.43-7.65-7.27-4.18a3,3,0,0,1-.93-4.37l4.94-6.77-6.24-5.6a3,3,0,0,1,0-4.47l6.24-5.6-4.94-6.77a3,3,0,0,1,.93-4.37l7.27-4.18-3.43-7.65a3,3,0,0,1,0-2.45,3,3,0,0,1,1.82-1.63l8-2.58-1.76-8.2a3,3,0,0,1,.51-2.39,3,3,0,0,1,2.12-1.22l8.34-.86,0-8.39a3,3,0,0,1,3-3H79l8.34.9L89,23.55A3,3,0,0,1,92,21.17a3,3,0,0,1,.94.15l8,2.6,3.39-7.66a3,3,0,0,1,1.82-1.64,2.91,2.91,0,0,1,.92-.15,3,3,0,0,1,1.51.41l7.25,4.2,4.92-6.79a3,3,0,0,1,2.12-1.23h.31a3,3,0,0,1,2,.77l6.22,5.63,6.22-5.63a3,3,0,0,1,2-.77h.32A3,3,0,0,1,142,12.29l4.91,6.79,7.25-4.2a3,3,0,0,1,2.44-.26,3,3,0,0,1,1.81,1.64l3.4,7.66,8-2.6a3,3,0,0,1,2.43.25,3,3,0,0,1,1.44,2l1.72,8.21,8.34-.9H184a3,3,0,0,1,3,3l0,8.39,8.35.86A3,3,0,0,1,198,46.71l-1.76,8.2,8,2.58A3,3,0,0,1,206,61.57l-3.43,7.65,7.28,4.18a3,3,0,0,1,.92,4.37l-4.94,6.77,6.24,5.6a3,3,0,0,1,0,4.47l-6.24,5.6,4.94,6.77a3,3,0,0,1-.92,4.37l-7.28,4.18,3.43,7.65a3,3,0,0,1-1.82,4.08l-8,2.58L198,138a3,3,0,0,1-2.62,3.61l-8.35.86,0,8.39a3,3,0,0,1-3,3h-.32l-8.34-.9-1.72,8.21a3,3,0,0,1-1.44,2,3,3,0,0,1-2.43.25l-8-2.6-3.4,7.66a3,3,0,0,1-1.81,1.64,3,3,0,0,1-.93.15,3,3,0,0,1-1.5-.41l-7.26-4.2L142,172.46a3,3,0,0,1-2.12,1.23Z" transform="translate(-46.57 -8.05)"/><path class="cls-3" d="M139.56,14.05l6.51,9,9.6-5.57,4.49,10.15,10.55-3.45L173,35l11-1.18,0,11.09,11,1.14-2.33,10.85,10.56,3.41-4.53,10.13L208.37,76l-6.54,9,8.26,7.4-8.26,7.41,6.54,9-9.62,5.53,4.53,10.13-10.56,3.41,2.33,10.85-11,1.14,0,11.09-11-1.18-2.29,10.86-10.55-3.45-4.49,10.15-9.6-5.57-6.51,9-8.23-7.44-8.23,7.44-6.51-9-9.6,5.57-4.49-10.15L92,160.58l-2.28-10.86-11,1.18,0-11.09-11-1.14L70,127.82l-10.57-3.41,4.54-10.13-9.63-5.53,6.55-9-8.27-7.41L60.84,85l-6.55-9,9.63-5.53L59.38,60.34,70,56.93,67.61,46.08l11-1.14,0-11.09,11,1.18L92,24.17l10.55,3.45L107,17.47l9.6,5.57,6.51-9,8.23,7.44,8.23-7.44M184,33.85h0M139.56,8.05a6,6,0,0,0-4,1.55l-4.21,3.8-4.21-3.8a5.94,5.94,0,0,0-4-1.55l-.63,0a6,6,0,0,0-4.23,2.45l-3.33,4.6L110,12.28a6,6,0,0,0-3-.81,6.21,6.21,0,0,0-1.85.29A6,6,0,0,0,101.51,15l-2.3,5.19-5.39-1.77A6.29,6.29,0,0,0,92,18.17a6,6,0,0,0-5.87,4.76l-1.17,5.55-5.64-.6c-.21,0-.43,0-.64,0a6,6,0,0,0-6,6v5.67L67,40.11a6,6,0,0,0-5.25,7.23l1.19,5.55-5.4,1.74a6,6,0,0,0-3.63,8.16L56.22,68,51.3,70.8a6,6,0,0,0-1.85,8.74l3.34,4.58-4.22,3.79a6,6,0,0,0,0,8.93l4.22,3.79-3.34,4.58A6,6,0,0,0,51.3,114l4.92,2.83L53.91,122a6,6,0,0,0,3.63,8.16l5.4,1.74-1.19,5.55A6,6,0,0,0,67,144.64l5.64.58v5.67a6,6,0,0,0,6,6c.21,0,.43,0,.64,0l5.64-.6,1.17,5.55A6,6,0,0,0,92,166.58a6.29,6.29,0,0,0,1.87-.29l5.39-1.77,2.3,5.19a6,6,0,0,0,3.63,3.28,6.21,6.21,0,0,0,1.85.29,6,6,0,0,0,3-.81l4.9-2.85,3.33,4.6a6,6,0,0,0,4.23,2.45q.32,0,.63,0a5.94,5.94,0,0,0,4-1.55l4.21-3.8,4.21,3.8a6,6,0,0,0,4,1.55q.31,0,.63,0a6,6,0,0,0,4.24-2.45l3.32-4.6,4.91,2.85a5.94,5.94,0,0,0,3,.81,6.16,6.16,0,0,0,1.85-.29,6,6,0,0,0,3.64-3.28l2.29-5.19,5.4,1.77a6.18,6.18,0,0,0,1.86.29,6,6,0,0,0,5.87-4.76l1.17-5.55,5.64.6.64,0a6,6,0,0,0,6-6v-5.67l5.64-.58a6,6,0,0,0,5.26-7.23l-1.2-5.55,5.4-1.74a6,6,0,0,0,3.64-8.16l-2.32-5.18,4.92-2.83a6,6,0,0,0,2.88-4,6,6,0,0,0-1-4.79l-3.35-4.58,4.23-3.79a6,6,0,0,0,0-8.93l-4.23-3.79,3.35-4.58a6,6,0,0,0,1-4.79,6,6,0,0,0-2.88-4L206.44,68l2.32-5.18a6,6,0,0,0-3.64-8.16l-5.4-1.74,1.2-5.55a6,6,0,0,0-5.26-7.23L190,39.53V34c0-.06,0-.12,0-.18a6,6,0,0,0-6-6h-.16a4,4,0,0,0-.6,0l-5.56.59-1.17-5.55a6,6,0,0,0-5.87-4.76,6.18,6.18,0,0,0-1.86.29l-5.4,1.77L161.16,15a6,6,0,0,0-3.64-3.28,6.16,6.16,0,0,0-1.85-.29,5.94,5.94,0,0,0-3,.81l-4.91,2.85-3.32-4.6a6,6,0,0,0-4.24-2.45l-.63,0Z" transform="translate(-46.57 -8.05)"/><circle class="cls-1" cx="84.76" cy="83.66" r="62.39"/><polygon class="cls-4" points="84.76 106.56 59.23 119.98 64.11 91.56 43.46 71.43 72 67.29 84.76 41.43 97.52 67.29 126.06 71.43 105.41 91.56 110.28 119.98 84.76 106.56"/></svg>