<svg id="レイヤー_1" data-name="レイヤー 1" xmlns="http://www.w3.org/2000/svg" viewBox="0 0 195.7 252.17"><defs><style>.cls-1{fill:#fff;stroke:#231815;stroke-miterlimit:10;stroke-width:0.25px;}.cls-2{fill:#55c0dd;}.cls-3{fill:#6ea4b7;}.cls-4{fill:#00a0e9;}</style></defs><path class="cls-1" d="M93.57,100.23" transform="translate(-238.27 -43.96)"/><path class="cls-2" d="M419.25,296.37" transform="translate(-238.27 -43.96)"/><polygon class="cls-3" points="37.42 21.45 18.23 12.98 0 221.36 157.1 252.17 19.9 212.68 37.42 21.45"/><polygon class="cls-2" points="65.33 11.15 45.75 2.67 28.59 209.15 167.95 252.17 47.94 201.28 65.33 11.15"/><path class="cls-4" d="M310.5,44,294.05,242.05l122.32,54.08L434,98.66ZM402.82,259,316,220.61l.95-15.33,11.45,5,3.51-1,9.35-106.83L339,98.67,326.7,93.18l.67-7.6,44.54,19.67-.58,7.72-14-5.29-2.64-.06L345.1,217l51.16,23.46,1.81-1.38.33-2.85,6.15,2.43Z" transform="translate(-238.27 -43.96)"/><path class="cls-1" d="M395.6,247.15" transform="translate(-238.27 -43.96)"/><path class="cls-1" d="M397.34,231.26" transform="translate(-238.27 -43.96)"/></svg>