<svg id="レイヤー_1" data-name="レイヤー 1" xmlns="http://www.w3.org/2000/svg" viewBox="0 0 261.5 316.21"><defs><style>.cls-1{fill:#fff;stroke:#231815;stroke-miterlimit:10;stroke-width:0.25px;}.cls-2{fill:#55c0dd;}.cls-3{fill:#6ea4b7;}.cls-4{fill:#00a0e9;}.cls-5{fill:#231815;}.cls-6{fill:#2e295a;}.cls-7{fill:#60b4a4;}</style></defs><path class="cls-1" d="M93.57,100.23" transform="translate(-201.79 -43.96)"/><path class="cls-2" d="M419.25,296.37" transform="translate(-201.79 -43.96)"/><polygon class="cls-3" points="73.9 21.45 54.71 12.98 36.48 221.36 193.58 252.17 56.38 212.68 73.9 21.45"/><polygon class="cls-2" points="101.81 11.15 82.23 2.67 65.06 209.15 204.43 252.17 84.42 201.28 101.81 11.15"/><path class="cls-4" d="M310.5,44,294.05,242.05l122.32,54.08L434,98.66ZM402.82,259,316,220.61l.95-15.33,11.45,5,3.51-1,9.35-106.83L339,98.67,326.7,93.18l.67-7.6,44.54,19.67-.58,7.72-14-5.29-2.64-.06L345.1,217l51.16,23.46,1.81-1.38.33-2.85,6.15,2.43Z" transform="translate(-201.79 -43.96)"/><path class="cls-1" d="M395.6,247.15" transform="translate(-201.79 -43.96)"/><path class="cls-1" d="M397.34,231.26" transform="translate(-201.79 -43.96)"/><path class="cls-5" d="M298.94,303.88" transform="translate(-201.79 -43.96)"/><polygon class="cls-6" points="76.53 310.93 75.54 312.14 56.6 312.14 56.6 291.02 68.19 291.02 69.18 292.15 69.89 297.58 73.21 297.58 73.21 280.99 69.89 280.99 69.18 286.5 68.19 287.55 56.6 287.55 56.6 268.47 72.93 268.47 73.92 269.6 74.91 276.01 78.86 276.01 78.86 265 45 265 45 268.02 49.03 268.47 50.23 269.53 50.23 311.08 49.03 312.14 45 312.51 45 315.61 81.41 315.61 81.41 303.31 77.73 303.31 76.53 310.93"/><path class="cls-7" d="M309.92,308.36h-4.67l-16.54,47.21-4.1.91v3.09h13.86v-3.09l-4.6-.38-.71-1.05,5-14.41h16.69L320,355.05l-.49,1.05-4.38.38v3.09h16v-3.09l-4.24-.91Zm-10.54,28.81,7-20.89,7.28,20.89Z" transform="translate(-201.79 -43.96)"/><path class="cls-6" d="M370,355.57q-2-1.05-3.08-4.3a49.38,49.38,0,0,1-1.31-5.16,22.23,22.23,0,0,0-2-6q-2.06-3.54-7.28-5.05,11.44-2.71,11.45-12.52c0-4.63-1.4-8-4.21-10.26S356.45,309,350.7,309h-18v3l4,.45,1.2,1.06v41.56l-1.2,1.05-4,.38v3.09H349.5v-3.09l-4-.38-1.2-1.05v-18c1.7-.09,2.87-.15,3.54-.15,3.2,0,5.62.6,7.24,1.78s2.91,3.3,3.85,6.37c.24.8.54,2,.92,3.51s.7,2.75,1,3.66a16.51,16.51,0,0,0,1.23,3,10.39,10.39,0,0,0,2.05,2.76c1.56,1.46,3.94,2.18,7.14,2.18a26.46,26.46,0,0,0,5.52-.68v-2.86h-.64A13.27,13.27,0,0,1,370,355.57Zm-21.81-22c-1.13,0-2.43,0-3.89-.07V312.43h3.39q6.72,0,9.87,2.49t3.14,8.22c0,3.67-1,6.33-3,8S352.45,333.55,348.16,333.55Z" transform="translate(-201.79 -43.96)"/><polygon class="cls-7" points="207.94 268.02 212.18 268.7 213.46 270.05 213.46 305.5 189.35 266.89 189.35 265 176.06 265 176.06 268.02 180.59 268.47 181.86 269.53 181.86 310.48 180.59 311.91 176.27 312.51 176.27 315.61 191.19 315.61 191.19 312.51 186.95 311.91 185.68 310.48 185.68 272.77 212.61 315.61 217.27 315.61 217.27 270.05 218.54 268.7 222.79 268.02 222.79 265 207.94 265 207.94 268.02"/><path class="cls-7" d="M437.3,314.85a3.91,3.91,0,0,0,2.9-1.25,4.23,4.23,0,0,0,1.2-3.05,4.34,4.34,0,0,0-1.2-3.09,3.84,3.84,0,0,0-2.9-1.29,3.89,3.89,0,0,0-2.9,1.25,4.32,4.32,0,0,0-1.2,3.13,4.23,4.23,0,0,0,1.2,3.05A3.89,3.89,0,0,0,437.3,314.85Z" transform="translate(-201.79 -43.96)"/><path class="cls-7" d="M460,356.82l-1.27-1.21V336.26H456l-6.27,2.79v2.34h5v12.18a17.66,17.66,0,0,1-8.2,2.26q-3.54,0-5.19-2t-1.67-6v-25H437l-6.79,2.31-1.34.45h0l-.07,0V328h5v27.27l-1.2,1.21-3.74.38v2.71h15.9v-.05a17.7,17.7,0,0,0,10-3.84v4.22h8.53v-2.72Z" transform="translate(-201.79 -43.96)"/><path class="cls-1" d="M249.27,305.47" transform="translate(-201.79 -43.96)"/><path class="cls-6" d="M219,354.38h17.36a28.69,28.69,0,0,0,4-10.76,4,4,0,0,1,1.62-.29,8.46,8.46,0,0,1,2.09.29l-.84,16.29h-41.4l.55-3.53a19.51,19.51,0,0,0,8.36-2.57V302.37a24.45,24.45,0,0,0-8.91-2.57c.06-.76.21-1.91.46-3.43H228l-.47,3.43a23.88,23.88,0,0,0-8.54,2.57Z" transform="translate(-201.79 -43.96)"/></svg>