<svg id="レイヤー_1" data-name="レイヤー 1" xmlns="http://www.w3.org/2000/svg" viewBox="0 0 787.17 275.92"><defs><style>.cls-1{fill:#55c0dd;}.cls-2{fill:#231815;}.cls-3{fill:#6ea4b7;}.cls-4{fill:#00a0e9;}.cls-5,.cls-7{fill:#2e295a;}.cls-6{fill:#60b4a4;}.cls-7{font-size:68.02px;font-family:DejaVuSerifCondensed, DejaVu Serif;letter-spacing:0.07em;}.cls-8{fill:#fff;stroke:#231815;stroke-miterlimit:10;stroke-width:0.25px;}</style></defs><path class="cls-1" d="M186.4,375.26" transform="translate(-6.42 -122.86)"/><path class="cls-2" d="M349.91,164.47" transform="translate(-6.42 -122.86)"/><polygon class="cls-3" points="36.42 21.45 17.23 12.98 0 220.36 156.1 252.17 18.9 212.68 36.42 21.45"/><polygon class="cls-1" points="64.33 11.15 44.75 2.67 27.59 209.15 166.95 252.17 46.94 201.28 64.33 11.15"/><text x="-6.42" y="-122.86"/><path class="cls-4" d="M77.65,122.86,61.2,320.94,183.52,375l17.6-197.48ZM170,337.91,83.1,299.5l1-15.33,11.45,5,3.51-1,9.35-106.84-2.22-3.75-12.29-5.49.67-7.61,44.54,19.68-.58,7.72-14-5.3-2.64,0-9.57,109.35,51.16,23.45,1.82-1.37.32-2.86,6.16,2.43Z" transform="translate(-6.42 -122.86)"/><polygon class="cls-5" points="287.85 179.25 285.18 182.51 234.07 182.51 234.07 125.53 265.35 125.53 268.02 128.59 269.93 143.24 278.89 143.24 278.89 98.47 269.93 98.47 268.02 113.32 265.35 116.17 234.07 116.17 234.07 64.69 278.13 64.69 280.8 67.75 283.47 85.04 294.15 85.04 294.15 55.33 202.79 55.33 202.79 63.47 213.66 64.69 216.91 67.54 216.91 179.66 213.66 182.51 202.79 183.52 202.79 191.87 301.01 191.87 301.01 158.7 291.1 158.7 287.85 179.25"/><path class="cls-6" d="M379.52,176.56H366.93L322.3,303.94l-11.06,2.44v8.34h37.38v-8.34l-12.39-1-1.91-2.85,13.54-38.86h45l13.73,38.86-1.33,2.85-11.83,1v8.34h43.29v-8.34l-11.44-2.44ZM351.1,254.29,370,197.92l19.65,56.37Z" transform="translate(-6.42 -122.86)"/><path class="cls-5" d="M541.53,303.94q-5.25-2.85-8.3-11.6a132,132,0,0,1-3.52-13.94q-2.4-10.87-5.44-16.18-5.53-9.56-19.64-13.63,30.89-7.32,30.89-33.78,0-18.7-11.35-27.67t-34.61-8.95H440.93v8.14l10.87,1.22L455,190.4V302.51l-3.24,2.85-10.87,1v8.34h45.39v-8.34l-10.87-1-3.25-2.85V254.09q6.87-.41,9.54-.41,13,0,19.55,4.78t10.39,17.2c.64,2.17,1.46,5.32,2.48,9.46s1.88,7.42,2.58,9.87a42.87,42.87,0,0,0,3.33,8,27.76,27.76,0,0,0,5.53,7.43q6.3,5.91,19.27,5.9a72.76,72.76,0,0,0,14.87-1.83v-7.73H558Q546.77,306.79,541.53,303.94Zm-58.84-59.42c-3.05,0-6.55-.06-10.49-.2V187.55h9.16q18.12,0,26.6,6.71t8.49,22.18q0,14.87-8.2,21.47T482.69,244.52Z" transform="translate(-6.42 -122.86)"/><polygon class="cls-6" points="642.39 63.47 653.84 65.3 657.27 68.97 657.27 164.6 592.23 60.42 592.23 55.33 556.38 55.33 556.38 63.47 568.58 64.69 572.02 67.54 572.02 178.03 568.58 181.9 556.95 183.52 556.95 191.87 597.19 191.87 597.19 183.52 585.75 181.9 582.32 178.03 582.32 76.29 654.98 191.87 667.57 191.87 667.57 68.97 671 65.3 682.44 63.47 682.44 55.33 642.39 55.33 642.39 63.47"/><path class="cls-6" d="M723.19,194.06A10.49,10.49,0,0,0,731,190.7a11.41,11.41,0,0,0,3.24-8.24,11.78,11.78,0,0,0-3.24-8.34,10.34,10.34,0,0,0-7.82-3.46,10.47,10.47,0,0,0-7.82,3.36,11.63,11.63,0,0,0-3.24,8.44,11.37,11.37,0,0,0,3.24,8.24A10.47,10.47,0,0,0,723.19,194.06Z" transform="translate(-6.42 -122.86)"/><path class="cls-6" d="M784.34,307.29,780.91,304V251.84h-7.25l-16.9,7.52v6.31H770.3v32.86q-11.62,6.11-22.12,6.1-9.54,0-14-5.29t-4.48-16.27V215.71h-7.25L704.12,222l-3.63,1.21v0l-.18.06v6.31h13.53v73.57l-3.24,3.26-10.11,1v7.32H743.4v-.14c8-.53,17-2.81,26.9-10.35v11.39h23v-7.32Z" transform="translate(-6.42 -122.86)"/><text class="cls-7" transform="translate(199.47 252.33) scale(1.1 1)">From everyone</text><path class="cls-8" d="M162.75,326.05" transform="translate(-6.42 -122.86)"/><path class="cls-8" d="M164.48,310.16" transform="translate(-6.42 -122.86)"/><path class="cls-8" d="M215.89,168.76" transform="translate(-6.42 -122.86)"/><path class="cls-8" d="M93.57,100.23" transform="translate(-6.42 -122.86)"/></svg>