<svg id="レイヤー_1" data-name="レイヤー 1" xmlns="http://www.w3.org/2000/svg" viewBox="0 0 164.78 140.4"><defs><style>.cls-1{fill:#fff;stroke:#9fa0a0;stroke-miterlimit:10;stroke-width:13px;}.cls-2{fill:#9fa0a0;}</style></defs><path class="cls-1" d="M6.61,30.18V81c0,5.91,5.24,10.7,11.71,10.7h0V104.6L37.66,91.65H90.49c6.47,0,11.71-4.79,11.71-10.7V30.18c0-5.92-5.24-10.71-11.71-10.71H18.32C11.85,19.47,6.61,24.26,6.61,30.18Z" transform="translate(-0.11 -12.97)"/><path class="cls-2" d="M43.19,78.27a15.12,15.12,0,0,1-6.23-6,17.73,17.73,0,0,1-2.21-9V50.18a17.7,17.7,0,0,1,2.21-9,15.06,15.06,0,0,1,6.23-6,19.69,19.69,0,0,1,9.3-2.12,19.73,19.73,0,0,1,9.31,2.12,15.06,15.06,0,0,1,6.23,6,17.81,17.81,0,0,1,2.21,9V63.31a17.83,17.83,0,0,1-2.21,9,15.12,15.12,0,0,1-6.23,6,19.72,19.72,0,0,1-9.31,2.11A19.68,19.68,0,0,1,43.19,78.27Zm13.65-7.62a7,7,0,0,0,2.89-2.85,8.7,8.7,0,0,0,1-4.27V50a8.67,8.67,0,0,0-1-4.27,7,7,0,0,0-2.89-2.85,9.85,9.85,0,0,0-8.69,0,7,7,0,0,0-2.89,2.85,8.67,8.67,0,0,0-1,4.27V63.53a8.7,8.7,0,0,0,1,4.27,7,7,0,0,0,2.89,2.85,9.94,9.94,0,0,0,8.69,0Zm-5.78-3.58,4.88-5.9L74.72,74.74l-4.88,5.93Z" transform="translate(-0.11 -12.97)"/><path class="cls-1" d="M158.39,74.94V119.6a9.31,9.31,0,0,1-9.21,9.41h0v11.38L134,129H92.41a9.32,9.32,0,0,1-9.22-9.41V74.94a9.32,9.32,0,0,1,9.22-9.41h56.77A9.31,9.31,0,0,1,158.39,74.94Z" transform="translate(-0.11 -12.97)"/><path class="cls-2" d="M117.11,78.61h4.57l14.63,37.62h-7.76L119.4,90.54l-9.16,25.69h-7.76Zm-7.61,24.76h20.13v6.83H109.5Z" transform="translate(-0.11 -12.97)"/></svg>