<svg id="レイヤー_1" data-name="レイヤー 1" xmlns="http://www.w3.org/2000/svg" viewBox="0 0 77.95 156.33"><defs><style>.cls-1{fill:#9fa0a0;}</style></defs><path class="cls-1" d="M50.62,160.66V152a40.06,40.06,0,0,0,8-.65,8.07,8.07,0,0,0,7-7,38.44,38.44,0,0,0,.64-7.78V91.5q0-8.64-1.65-11.67t-6.09-3a49,49,0,0,0-5.89.43,42.13,42.13,0,0,0-6.08,1.15l-3.32-8.06,51.6-12.11H105.9v78.53a32.75,32.75,0,0,0,.74,7.7,9.74,9.74,0,0,0,2.49,4.69,8.88,8.88,0,0,0,4.7,2.3,38.78,38.78,0,0,0,7.37.58v8.64ZM108.11,21.77a14.86,14.86,0,0,1-1.75,7.06,18.32,18.32,0,0,1-4.79,5.76,23.89,23.89,0,0,1-7.09,3.89,26.29,26.29,0,0,1-8.85,1.44,28.37,28.37,0,0,1-8.93-1.36,24.91,24.91,0,0,1-7.28-3.75,18.06,18.06,0,0,1-5-5.76,15,15,0,0,1-1.84-7.28,13.89,13.89,0,0,1,1.84-7,17.63,17.63,0,0,1,5-5.54A24.42,24.42,0,0,1,76.7,5.63a29.89,29.89,0,0,1,8.93-1.29A26.93,26.93,0,0,1,94.2,5.71a23.55,23.55,0,0,1,7.19,3.74A19.46,19.46,0,0,1,106.27,15,13.23,13.23,0,0,1,108.11,21.77Z" transform="translate(-43.25 -4.34)"/></svg>