<svg id="レイヤー_1" data-name="レイヤー 1" xmlns="http://www.w3.org/2000/svg" viewBox="0 0 158.32 142.16"><defs><style>.cls-1{fill:#9fa0a0;}.cls-1,.cls-2,.cls-3,.cls-4{stroke:#9fa0a0;stroke-width:8px;}.cls-1,.cls-2{stroke-miterlimit:10;}.cls-2,.cls-4{fill:none;}.cls-3{fill:#fff;}.cls-3,.cls-4{stroke-linejoin:round;}.cls-4{stroke-linecap:round;}</style></defs><circle class="cls-1" cx="78.62" cy="14.79" r="6.36"/><circle class="cls-2" cx="78.62" cy="122.06" r="16.1"/><path class="cls-3" d="M127.61,121.88V79.26c0-24.75-20.44-44.82-45.65-44.82S36.3,54.51,36.3,79.26v42.62l-5.95,16H133.56Z" transform="translate(-3.34 -15.42)"/><path class="cls-4" d="M44.13,35.07c-15.68,8.57-20.4,27.47-20.4,27.47" transform="translate(-3.34 -15.42)"/><path class="cls-4" d="M41,19.53C15.13,33.87,7.34,65.47,7.34,65.47" transform="translate(-3.34 -15.42)"/><path class="cls-4" d="M120.87,35c15.68,8.57,20.4,27.47,20.4,27.47" transform="translate(-3.34 -15.42)"/><path class="cls-4" d="M124,19.42c25.91,14.33,33.7,45.93,33.7,45.93" transform="translate(-3.34 -15.42)"/></svg>