<svg id="レイヤー_1" data-name="レイヤー 1" xmlns="http://www.w3.org/2000/svg" viewBox="0 0 129.96 158.43"><defs><style>.cls-1{fill:#fff;stroke:#9fa0a0;stroke-linejoin:round;stroke-width:7px;}.cls-2,.cls-4{fill:none;}.cls-2{stroke:#000;stroke-miterlimit:10;}.cls-3{fill:#e60012;}.cls-5{fill:#e91b2b;}</style></defs><path class="cls-1" d="M105.51,22.81l30.67,30.68a4.25,4.25,0,0,1,1.26,3v97a4.28,4.28,0,0,1-4.28,4.27H31.5a4.28,4.28,0,0,1-4.28-4.27V25.84a4.28,4.28,0,0,1,4.28-4.28h71A4.28,4.28,0,0,1,105.51,22.81ZM106,23l-.29,15.17-.2,10.76a4.29,4.29,0,0,0,4.32,4.38l10.76-.08,15.17-.1L120.85,38.05Z" transform="translate(-10.98 -2.86)"/><line class="cls-1" x1="34.48" y1="44.66" x2="92.85" y2="44.66"/><line class="cls-1" x1="34.48" y1="62.16" x2="108.39" y2="62.16"/><line class="cls-1" x1="34.48" y1="79.66" x2="107.77" y2="79.66"/><line class="cls-1" x1="34.48" y1="97.5" x2="108.39" y2="97.5"/><line class="cls-1" x1="34.48" y1="115.33" x2="108.39" y2="115.33"/><line class="cls-1" x1="34.48" y1="133.17" x2="108.39" y2="133.17"/><path class="cls-2" d="M152.83-54.76" transform="translate(-10.98 -2.86)"/><path class="cls-3" d="M57.87,60.84q-3.59,1-8.74-7.46-2-3.21-5.89-11.53-3.81,1.63-9.83,4.79l-9.74,5q-.54,5.61-2.55,16.69a3.92,3.92,0,0,1-2.78,3.11,4.2,4.2,0,0,1-3.09-.36,3.81,3.81,0,0,1-2-2.46q-.51-1.87,2-15.79a4.26,4.26,0,0,1-1.3-2.15c-.58-2.09.32-3.79,2.69-5.08q2.14-9.53,5.93-22.18Q27.7,6.15,30,5.53,33,4.69,35.32,8.65l6,12.37,13.21,25.4,3.9,5.52a16.57,16.57,0,0,1,2.28,3.89A3.8,3.8,0,0,1,60.31,59,4,4,0,0,1,57.87,60.84ZM32,20.23l-6.18,21q4.36-2.49,13.45-6.83Z" transform="translate(-10.98 -2.86)"/><path class="cls-4" d="M57.87,60.84q-3.59,1-8.74-7.46-2-3.21-5.89-11.53-3.81,1.63-9.83,4.79l-9.74,5q-.54,5.61-2.55,16.69a3.92,3.92,0,0,1-2.78,3.11,4.2,4.2,0,0,1-3.09-.36,3.81,3.81,0,0,1-2-2.46q-.51-1.87,2-15.79a4.26,4.26,0,0,1-1.3-2.15c-.58-2.09.32-3.79,2.69-5.08q2.14-9.53,5.93-22.18Q27.7,6.15,30,5.53,33,4.69,35.32,8.65l6,12.37,13.21,25.4,3.9,5.52a16.57,16.57,0,0,1,2.28,3.89A3.8,3.8,0,0,1,60.31,59,4,4,0,0,1,57.87,60.84ZM32,20.23l-6.18,21q4.36-2.49,13.45-6.83Z" transform="translate(-10.98 -2.86)"/><path class="cls-5" d="M29.81,21.39c0-.08-.36.14-.43.16C29.52,21.62,29.91,21.34,29.81,21.39Z" transform="translate(-10.98 -2.86)"/><polygon class="cls-5" points="20.27 19.25 20.11 19.31 20.57 19.28 20.27 19.25"/><path class="cls-5" d="M31.79,23.18c.59-.43-.3-.34-.17-.64l.13-.11-.56.18C31.39,22.8,31.89,22.92,31.79,23.18Z" transform="translate(-10.98 -2.86)"/><path class="cls-5" d="M30.71,24.46c.23-.17.28,0,0-.18l0,.06S30.7,24.39,30.71,24.46Z" transform="translate(-10.98 -2.86)"/><path class="cls-5" d="M30.67,24.34c-.07-.1-.17.18,0,0Z" transform="translate(-10.98 -2.86)"/><path class="cls-5" d="M31.08,24.79l-.29,0c-.13.11-.1.26-.23.26C30.76,25.1,30.89,25,31.08,24.79Z" transform="translate(-10.98 -2.86)"/><path class="cls-5" d="M31.62,24.69l-.13,0C31.43,24.7,31.42,24.74,31.62,24.69Z" transform="translate(-10.98 -2.86)"/><path class="cls-5" d="M31.2,24.6l.29.06c.09-.07.29-.18-.11,0C31.57,24.54,31.37,24.6,31.2,24.6Z" transform="translate(-10.98 -2.86)"/><path class="cls-5" d="M31.25,24.46c.1-.16.13-.31.43-.27C31.44,24,31,24.22,31.25,24.46Z" transform="translate(-10.98 -2.86)"/><path class="cls-5" d="M32.48,22.89l.13-.2h-.27C32.47,22.69,32.28,23,32.48,22.89Z" transform="translate(-10.98 -2.86)"/><path class="cls-5" d="M31.23,25.88c.14-.06.33-.23.5-.33l-.21,0A.7.7,0,0,1,31.23,25.88Z" transform="translate(-10.98 -2.86)"/><path class="cls-5" d="M31.73,25.55l.32,0C32,25.43,31.88,25.46,31.73,25.55Z" transform="translate(-10.98 -2.86)"/><polygon class="cls-5" points="21.36 21.5 20.73 21.48 21.39 21.55 21.36 21.5"/><polygon class="cls-5" points="20.56 23.66 20.2 23.73 20.75 23.65 20.56 23.66"/><path class="cls-5" d="M31.8,26.9c-.29.07-.39.32-.58.33.1.09.37.07.62.06C31.68,27.25,31.66,27.14,31.8,26.9Z" transform="translate(-10.98 -2.86)"/><path class="cls-5" d="M32.21,27.28a2.43,2.43,0,0,0-.37,0A.93.93,0,0,0,32.21,27.28Z" transform="translate(-10.98 -2.86)"/><path class="cls-5" d="M32.12,25.9c-.07.06-.27.19-.31.33l.34-.26Z" transform="translate(-10.98 -2.86)"/><path class="cls-5" d="M32.16,26h0l.05.15Z" transform="translate(-10.98 -2.86)"/><path class="cls-5" d="M32.12,25.89h0S32.17,25.87,32.12,25.89Z" transform="translate(-10.98 -2.86)"/><path class="cls-5" d="M32.21,25c.27,0,.6.07.82-.29C32.74,24.73,32.61,24.94,32.21,25Z" transform="translate(-10.98 -2.86)"/><path class="cls-5" d="M32.55,25.56v-.22a.8.8,0,0,1-.36.17Z" transform="translate(-10.98 -2.86)"/><polygon class="cls-5" points="21.74 22.73 21.57 22.71 21.57 22.79 21.74 22.73"/><path class="cls-5" d="M32.41,26.8a.34.34,0,0,1,.33.15.53.53,0,0,0,0-.36C32.57,26.63,32.34,26.7,32.41,26.8Z" transform="translate(-10.98 -2.86)"/><path class="cls-5" d="M32.32,26.38h0S32.39,26.34,32.32,26.38Z" transform="translate(-10.98 -2.86)"/><path class="cls-5" d="M33.21,27.86l.06-.05-.07,0Z" transform="translate(-10.98 -2.86)"/><path class="cls-5" d="M32.76,26.53c0-.11-.08-.11-.22-.09a.33.33,0,0,1,.16.15C32.76,26.57,32.79,26.55,32.76,26.53Z" transform="translate(-10.98 -2.86)"/><path class="cls-5" d="M32.51,27.45a1.58,1.58,0,0,0,.15-.24C32.56,27.31,32.41,27.48,32.51,27.45Z" transform="translate(-10.98 -2.86)"/><path class="cls-5" d="M32.26,26.46h0C32.17,26.53,32.21,26.5,32.26,26.46Z" transform="translate(-10.98 -2.86)"/><path class="cls-5" d="M32.26,26.46a1.47,1.47,0,0,0,.28,0,.47.47,0,0,0-.19-.06A.34.34,0,0,1,32.26,26.46Z" transform="translate(-10.98 -2.86)"/><path class="cls-5" d="M35.79,26.89c-.36.16-.78.13-.49-.23a5.37,5.37,0,0,0-2,1.15.84.84,0,0,1,.6-.08c.16-.16.25-.61.64-.63s0,.25-.15.46c.39-.32.78,0,1.4-.42l-.33-.09C35.53,27,35.73,27,35.79,26.89Z" transform="translate(-10.98 -2.86)"/><path class="cls-5" d="M33.14,27.47l-.08,0c0,.11-.13.24-.35.49a.78.78,0,0,0,.49-.07l-.13-.37Z" transform="translate(-10.98 -2.86)"/><path class="cls-5" d="M32.89,27.1c.42-.14.67-.05,1-.37-.14-.2-.4,0-.63,0,.27.28-.26,0-.35.37a.69.69,0,0,1-.2-.13,1,1,0,0,1-.08.26l0,0h0s.07-.06,0,0h0l.15-.06c0,.14-.09.07-.15.06l-.06,0h0l.38.23C33.08,27.32,33,27.24,32.89,27.1Z" transform="translate(-10.98 -2.86)"/><path class="cls-5" d="M34,24.42l-.09.06C33.92,24.48,34,24.47,34,24.42Z" transform="translate(-10.98 -2.86)"/><path class="cls-5" d="M33.79,24.68c-.07,0-.23.06-.23,0s.18-.09.3-.16c-.12,0-.36,0-.47.22h.07a1.6,1.6,0,0,1-.52.62A5.26,5.26,0,0,0,33.79,24.68Z" transform="translate(-10.98 -2.86)"/><path class="cls-5" d="M33.44,25.85l.34.18.25-.31-.19.11C33.83,25.63,33.61,25.79,33.44,25.85Z" transform="translate(-10.98 -2.86)"/><polygon class="cls-5" points="22.06 25.14 21.63 25.31 22.29 25.18 22.06 25.14"/><polygon class="cls-5" points="22.29 25.48 21.93 25.64 22.2 25.63 22.29 25.48"/><path class="cls-5" d="M21.91,46l-.17.12S21.85,46,21.91,46Z" transform="translate(-10.98 -2.86)"/><path class="cls-5" d="M22.61,45.73l.33-.41C22.73,45.56,22.58,45.73,22.61,45.73Z" transform="translate(-10.98 -2.86)"/><path class="cls-5" d="M35.2,33.52c-.38-.23-.87-.62-.5-.31l.38.3C35,33.44,35.1,33.47,35.2,33.52Z" transform="translate(-10.98 -2.86)"/><path class="cls-5" d="M31.24,38.37v.15l.16-.55Z" transform="translate(-10.98 -2.86)"/><path class="cls-5" d="M30.75,40.65c-.06-.07-.11-.15-.16-.22A.32.32,0,0,0,30.75,40.65Z" transform="translate(-10.98 -2.86)"/><path class="cls-5" d="M22.92,40.82l-.54.29C22.29,41.4,22.63,41,22.92,40.82Z" transform="translate(-10.98 -2.86)"/><path class="cls-5" d="M35.31,31.94c-.13.12-.19.17-.19.2C35.33,32,35.64,31.8,35.31,31.94Z" transform="translate(-10.98 -2.86)"/><path class="cls-5" d="M29.52,36.7l-.45.53C29.22,37.07,29.36,36.9,29.52,36.7Z" transform="translate(-10.98 -2.86)"/><path class="cls-5" d="M35.17,32.23l.09,0c-.09,0-.15,0-.14,0C35,32.24,34.86,32.29,35.17,32.23Z" transform="translate(-10.98 -2.86)"/><path class="cls-5" d="M28.17,24.31h0S28.16,24.29,28.17,24.31Z" transform="translate(-10.98 -2.86)"/><path class="cls-5" d="M33.46,21.84a.3.3,0,0,1,0,.16S33.49,21.94,33.46,21.84Z" transform="translate(-10.98 -2.86)"/><path class="cls-5" d="M33.86,29.88c-.07-.06,0,0,0,0Z" transform="translate(-10.98 -2.86)"/><path class="cls-5" d="M35.19,28.72a.53.53,0,0,0,.2-.06A.58.58,0,0,1,35.19,28.72Z" transform="translate(-10.98 -2.86)"/><path class="cls-5" d="M38.2,32.22h0C38.28,32.19,38.26,32.2,38.2,32.22Z" transform="translate(-10.98 -2.86)"/><path class="cls-5" d="M34,29.68a.47.47,0,0,0-.06.15A.57.57,0,0,0,34,29.68Z" transform="translate(-10.98 -2.86)"/><path class="cls-5" d="M33.8,29.79V29.7C33.73,29.72,33.7,29.75,33.8,29.79Z" transform="translate(-10.98 -2.86)"/><path class="cls-5" d="M33.93,30a.19.19,0,0,1,0-.15s0,.05,0,.05Z" transform="translate(-10.98 -2.86)"/><path class="cls-5" d="M27.27,31.46h0C27.16,31.32,27.18,31.36,27.27,31.46Z" transform="translate(-10.98 -2.86)"/><path class="cls-5" d="M36.29,38v0h0Z" transform="translate(-10.98 -2.86)"/><path class="cls-5" d="M36.15,38.43c-.12-.54,0-.52.12-.46l-.64-1.08Z" transform="translate(-10.98 -2.86)"/><path class="cls-5" d="M22.42,43.7l-.7,1c-.85.61-.4-.14-1.34,1.12,1-1,1-.73.91-.42s-.11.62.95-.59l-.52.75c0-.09-.08,0,0,0-1.17,1.67,1.46-1.49,1-.62-.12.21-.22.37-.35.57a4.58,4.58,0,0,1-.42.5l.32-.25.42-.41c.07,0-.35.5-.42.51l.78-.57-.07.09,1.42-1.59c-.16.31-.29.33-.51.65l.79-.83A5.35,5.35,0,0,1,23.33,45c-.87,1.27-.64,1-.29.67s.82-.9.64-.35l-.58.53c-.85,1.36-.16.66-.32,1.3.1-.2.26-.64.53-1.15a7,7,0,0,1,1.06-1.53c0,.14.06.14.6-.47-.6.89-.25.55,0,.36l-.77,1.17a17.47,17.47,0,0,0,1.34-1.67c.23,0-.22.77-.57,1.44.44-.13.46-1.17,1.18-1.71.16.19.73-.43,1.48-1.27.09.19-.35.64-.4.87l.63-.93c.05,0-.08.24-.15.37.34-.42.48-1,.88-1.42s.23-.23.27,0,.16.46.53-.2a5.92,5.92,0,0,1-.32.9,10.44,10.44,0,0,0,1.28-1.91,2.24,2.24,0,0,0,.2.37c-.11-.49.37-1.39.65-2.06l0-.58.33-.55a2.68,2.68,0,0,1-.14.73l.08-.21a2.61,2.61,0,0,1-.18,1.18c0-.13,0-.28-.06-.42a12.08,12.08,0,0,0-.41,1.56,1.17,1.17,0,0,1,.17-.29,1.91,1.91,0,0,0-.08.34c0,.08.07-.12.17-.35l0,.81.07-.36a6,6,0,0,0,.56.22c.51-1.07.75-2.38,1.15-2.91a6,6,0,0,0,.26,1.52c-.28-.59-.45.54-.83.59.18,0,.16.32.12.46q.31-.49.57-1c.07.53.2.33.41.45-.34-1,.3-.89.43-1.3.14.31.2.66-.14.74.28.28.32-.07.31-.41s-.05-.68.24-.46c-.07,0-.12,0-.08.18.07-.37.44-.29.51,0l0,0a.93.93,0,0,0,.72-1.3c.06.1.41.94.47,1.11l-.65-2.88c.27.69,1.24,2.15,1.14,2.66.15,0,.23.14.39-.23-.14,0-.66-.85-.6-1,.66.59.38.3,1.12.71-.21-.07-.69-1.11-.53-1.15a8.87,8.87,0,0,1,.68,1.06,6.16,6.16,0,0,0-.25-1.13,2.73,2.73,0,0,0,.94,1c-.2-.14.46-.2.51-.35l-.4-.09c.7-.15-.77-1.38-.35-1.52.18.17,1.17,1,1.59,1-.21-.22-.75-.73-1.32-1.21s-1.15-.92-1.31-1.09l.42.16a2.37,2.37,0,0,0-.27-.28A11.23,11.23,0,0,1,38.64,35a5.26,5.26,0,0,1,1.17,1.26c.48.06.45.22.76,0,.45.12.31.37.21.43l1.08-.29c-.8-.36-.17-.67-.91-.94a3.39,3.39,0,0,1,0,.78,4.13,4.13,0,0,1-1.07-.81c-.27-.29-.42-.53-.15-.59a11,11,0,0,1,1.73.74c-.22-.15-.09-.44.18-.39a3.45,3.45,0,0,1,.26.28c.19,0,.2-.08.16-.15-.37-.28-1-.59-.54-.66,0-.09.92-.09.4-.23a32.87,32.87,0,0,1-4.71-1.05c.06,0,.78-.08,1.18-.13.65-.05,1.87.5,2.44.47a3.42,3.42,0,0,1-.67-.23c.13-.09.72.14.48-.13-.83-.13-.19-.5-.74-.19-.35-.24,0-.23-.14-.51a7.41,7.41,0,0,1-2.08-.34,2,2,0,0,0,.52-.09c-.12-.37.08-.65-.11-1,.14-.09.23-.36.55-.38-.15,0-.39,0-.47-.1.41-.5.23.25.79-.22-.38.13-.7-.15-1-.16-.52.32.08.4.41.51a5.65,5.65,0,0,1-1.23.3,2,2,0,0,1-1,0c-.33-.18.43-.37.29-.36-.14-.6-1.54.22-1.22-.49.39-.42,1-.5,1.27-.72.3.14-.12.51,0,.66l.12-.31c.2,0,.4.08.3.23.36-.36-.37-.93-.18-1.54-.2,0-.43,0-.59.13l.13.1c-.32.31-.66,0-.75.28-.36,0-.89,0-.8-.36l.53-.32c-.16.08-.25.32,0,.3-.29,0,.55-.75-.22-.49l-.29.36c-.36,0-1.05.05-1-.25-.49.38.09,0-.47.5.72-.54.25.56,1-.07-.65.53-.17.43-.69.95.18-.1.31-.25.31,0l.18,0v0l0,0s0,0,0,0a1,1,0,0,1,.23-.23c.46-.13.59.17.86.15,0,.16-.23.07-.39.22l.39,0c-.39.22-.52.63-.88.5l.1.23c-.16.25-.15.48.08.51,0,.15.58,0,.22.11l.43.23-.1,0c.07.19.32.29.5.43s.18.15-.17.35c.13,0,.29,0,.2.13l-.39.09c.17,0-.36.15.09.14-.56.05-.62.06-.55.09s.29.1.18.1l.63.11s.2.14.51.3l.59.16c.26.11.2.16.07.17s-.51-.07-.55,0c-.2-.09-.12-.09,0-.05-.72-.21-.53-.1-.37.06s.32.37-.12.18c.12.12,0,.1-.09,0a0,0,0,0,0,0,0h0l-.27-.14a1.8,1.8,0,0,0,.26.14s0,.08,0,.18l-.42-.33h0c-.18-.11.16.18.48.43l.17.24c-.64-.56.05.27-.61-.34.26.33,0,.35.42,1.08-.06-.09-.11-.13-.08-.15-.13,0-.24-.1-.19.14L35,34.4a3.63,3.63,0,0,1,.19.82,1.19,1.19,0,0,1-.53-.92c0,.82-.16.38-.14,1.17l-.16-.36c-.1.07,0,.62-.24.36s-.59-.16-.93,0-.47.2-.71-.07c.29,1.16-.23-.47-.1.47a2.86,2.86,0,0,1-.09-.7c-.12.36-.18-.4-.28.5,0-.31,0-.47,0-.65,0,.07,0,.29,0,.11A2.3,2.3,0,0,1,32,34.7a14.52,14.52,0,0,0-.34,2.06c-.06-.39-.09-.32-.3.38a1.52,1.52,0,0,1,.18-.79c-.08,0-.24-.31-.5.54,0-.21-.08,0-.13.09s-.13,0-.32.13v.12c-.51,1.12-.25.32-.44.53l.05-.12c.09-.67-.35.48-.15-.33l-.38.73c-.43.8-.4.61-.29.3s.3-.76,0-.39l-.2.4c-.22.32,0-.21.4-.85L30.46,36c.09-.14.17-.25.26-.37.55-1-.7,1.07-1,1.39.38-.58,1-1.49,1-1.57s-.21.26-.56.7-.68.81-.28.25c-.34.47-.66.92-1,1.32-.13.12.15-.3.32-.56s.22-.36-.47.47l.3-.39L29,37.3a8,8,0,0,1-.56.58c-.17.16-.38.37-.71.73,1.34-1.61,1.05-1.33.75-1.09s-.61.46.56-.77L29,36.62l.23-.23c.19-.29-.33.18-.84.6.17-.18.36-.34.48-.45.52-.68.41-.53-.57.08L29,36c-.19.13.11-.19.35-.46s.44-.48.1-.35c.07,0,.19-.12.28-.16-.34.12.15-.32.41-.54s.32-.28-.73.1a3.46,3.46,0,0,1-.46,0c-.26.38-.9.28-1.29.54-.07-.14.75-.6.8-.46l-.11.06c1.07-.29.5-.51,1.21-.67a1.67,1.67,0,0,1,.45-.71l.27-.27.06-.06.07-.14a1.78,1.78,0,0,0,.12-.29l-.73-.12.13-.26c.18,0,.57.06.49.25.43,0-.24-.43-.39-.48.4-.3.77.39.83.28V32.1h-.09c-.25-.21-.55-.31-.44-.54s.45.05.5,0,.07,0,0-.09l.17-.33-.6,0c-.23-.24.13-.32-.55-.34,1,0,.73-1.21,1.08-1.26a.58.58,0,0,1-.15-.8c-.13,0-.77-.11-.62-.32,1.26.46.68-.25,1.66-.17-.66,0,0-.69-.91-.69.16-.16.49.13.83.08-.36-.6.62-.91.62-1.52a1.57,1.57,0,0,1-.67-.23l.93-.05c0-.14-.94-.39-.3-.42-.15,0-.37,0-.41-.13,1.15-.85,0-2.44,1.87-3.1-.37.05-.38-.06-.36-.18-.1.06-.41-.12-.64-.17l.77-.28c-.61-.28.1-.52-.49-.75l.07.18c-.66-.4-1.68-.19-2.59-.49.75.46-1.37.23-.31.93-.22,0-.28-.15-.51-.17.37.2.42.34.18.49l-.09,0c-.07.61-.53.74-1,1.31l.47.09c-.11.12-.26.1-.39.14.64.36.15-.38.87,0-1-.09-.3,1-1.39.79-.07.21.54.09.48.3l-.31,0,.35.16c-.1.12-.47.09-.72,0,0,0,0-.12,0-.16-.39.08,0,.55-.17.58l.24-.16c.09.67-.49,1.27-.08,2l.22,0c.27.54-.33.27-.29.8l0,0c.18.15.25.31.19.43-.22-.19-.56.09-.79-.15.29.59.27.33,1,.87l-.37,0c.29.2.46.26.48.52-.25-.28-.59,0-.93-.35-.92.27.57,1-.63.86.91.52.67-.26.84-.07.36,0,.68.4.54.53s-1.34-.1-1.44.3c0,0-.06-.06,0-.1-.3.07.25.39-.21.45.57.28-.1.23.65.48l-.07-.41c.14.26,1,.72.44.93a1.52,1.52,0,0,1-.41-.33c-.26,0,.09.23-.17.27-.75-.25,0-.49-.55-.89-.35,0,.43.59-.36.23,1,.47-.25.36.47.86l-.45-.15c.06,0,.23.27.19.38a6.55,6.55,0,0,1-.53-.39c.41.48-.66.61-.49,1,.21-.74.62-.08,1.05-.31.41.86-1.38.31-1.47,1.4,0-.15.46-.53.62-.31a2.45,2.45,0,0,1-.72.59c-.1.67.55-.16.78.09-.69.3.16.29.3.49l-.54.1c-.56.8,1.08-.08.48.61a5.32,5.32,0,0,1-.69,0l.1.28-.61.13c.36.23.21.36-.08.81.43-.25,1-.38,1-.11-.4.36-.52.14-.56.53-.34.09-.77.18-.17-.27-.18.07-.33.06-.51.12-.47.43-.28.68-.33.85a.76.76,0,0,1,.2-.26,3.33,3.33,0,0,0,.63.21.92.92,0,0,1-.57.28c0,.1.28,0,.28.18-.49.25-1,.59-1.15.41a2.89,2.89,0,0,0,.35.35c-.23.18-.71.75-.87.79-.43.64.72.23.17,1,.1-.06.19-.08.23,0-.25.53-1.06,1.59-.46,1.43l-1.11,1.28c.11.22,1.41-1.63,1.59-1.32.2.14-.93,1-1.27,1.52.44-.24,1.41-1,.41.37C22.26,44.05,22.46,43.76,22.42,43.7Zm2,.79c-.22.24-.85.95-.52.44C24.73,43.8,24.43,44.28,24.38,44.49Zm7.22-5.25c-.07.21-.15.16-.22,0C31.46,39.15,31.53,39.14,31.6,39.24Zm3-8.69h0C34.56,30.76,34.61,30.68,34.64,30.55Zm0-.36a.37.37,0,0,0-.18.08c.12,0,.15,0,.16.1C34.77,30.29,34.83,30.22,34.69,30.19Zm-4,1.3-.13,0C30.41,31.34,30.52,31.41,30.64,31.49Z" transform="translate(-10.98 -2.86)"/><path class="cls-5" d="M30.81,40.39a1.8,1.8,0,0,1,0-.31A.35.35,0,0,0,30.81,40.39Z" transform="translate(-10.98 -2.86)"/><path class="cls-5" d="M23,40.76v0l-.11.08Z" transform="translate(-10.98 -2.86)"/><path class="cls-5" d="M41.05,33.61a.27.27,0,0,1-.22.1C41,33.74,41.08,33.73,41.05,33.61Z" transform="translate(-10.98 -2.86)"/><path class="cls-5" d="M33.25,29.18l.2.11c-.06-.07,0-.14.06-.22S33.29,29.23,33.25,29.18Z" transform="translate(-10.98 -2.86)"/><path class="cls-5" d="M35.16,26.37c-.07,0,0-.05-.1-.05l-.19.11A.16.16,0,0,0,35.16,26.37Z" transform="translate(-10.98 -2.86)"/><path class="cls-5" d="M34.6,28.3c.35-.2.18-.24,0-.33s0,0,0,0C34.14,28.22,34.37,28.26,34.6,28.3Z" transform="translate(-10.98 -2.86)"/><path class="cls-5" d="M34.62,28a.15.15,0,0,1-.06-.1C34.35,27.94,34.54,27.91,34.62,28Z" transform="translate(-10.98 -2.86)"/><path class="cls-5" d="M34.28,30c.07-.1-.48.21-.34.1C33.44,30.25,34.68,30.16,34.28,30Z" transform="translate(-10.98 -2.86)"/><polygon class="cls-5" points="24.76 24.73 24.34 25 24.73 24.89 24.76 24.73"/><path class="cls-5" d="M35.89,28.68l0-.25a.23.23,0,0,1-.17,0C35.78,28.58,35.76,28.75,35.89,28.68Z" transform="translate(-10.98 -2.86)"/><path class="cls-5" d="M35.74,28.46c0-.06-.06-.12-.15-.11A.27.27,0,0,0,35.74,28.46Z" transform="translate(-10.98 -2.86)"/><polygon class="cls-5" points="25.02 24.92 24.96 25.02 25 25.17 25.02 24.92"/><path class="cls-5" d="M36.84,30.74l.23.14c.16-.06.23-.16.13-.21S37,30.63,36.84,30.74Z" transform="translate(-10.98 -2.86)"/><path class="cls-5" d="M37.74,29.49a1.28,1.28,0,0,1-.29.27l.55-.28Z" transform="translate(-10.98 -2.86)"/><path class="cls-5" d="M38.17,30c.17-.06.6.07.43-.17C38.44,29.91,38.2,29.77,38.17,30Z" transform="translate(-10.98 -2.86)"/><polygon class="cls-5" points="28.18 30.79 28.14 30.74 26.87 30.5 28.18 30.79"/><path class="cls-5" d="M39.54,37.19c.63,0-.45-.48.18-.44-.13-.21-.51,0-.6-.22C39.12,36.81,38.86,36.77,39.54,37.19Z" transform="translate(-10.98 -2.86)"/><path class="cls-5" d="M39.12,36.53a.55.55,0,0,0,0-.16A.26.26,0,0,0,39.12,36.53Z" transform="translate(-10.98 -2.86)"/><polygon class="cls-5" points="23.18 18.52 23.44 18.42 23.08 18.43 23.18 18.52"/><path class="cls-5" d="M33.53,20.85l.64.14-.54-.27C33.65,20.77,33.68,20.86,33.53,20.85Z" transform="translate(-10.98 -2.86)"/><path class="cls-5" d="M23.5,46.48l.21-.3c.16-.28.11-.26,0-.23Z" transform="translate(-10.98 -2.86)"/><polygon class="cls-5" points="9.97 44.02 9.93 44.12 10.91 42.85 9.97 44.02"/><path class="cls-5" d="M20.85,44.56c-.08.19.06.18,0,.36C20.78,44.74,21.94,43.46,20.85,44.56Z" transform="translate(-10.98 -2.86)"/><path class="cls-5" d="M58.88,63.07c-.47.11-.2.46-.25.56C59.43,63.28,58.81,63,58.88,63.07Z" transform="translate(-10.98 -2.86)"/><path class="cls-5" d="M62.39,56.9l.17.12a5.73,5.73,0,0,0-.5-1A5.6,5.6,0,0,1,62.39,56.9Z" transform="translate(-10.98 -2.86)"/><path class="cls-5" d="M60.18,51.8c-.33.78,1.09,1.4,1.32,2.38l-.07.22a6.6,6.6,0,0,1,.72.15C61.51,53.42,60.44,52.55,60.18,51.8Z" transform="translate(-10.98 -2.86)"/><path class="cls-5" d="M60,48.81c-.13.29-.51-.31.27.54v-.13C60.18,49.14,60.1,49,60,48.81Z" transform="translate(-10.98 -2.86)"/><path class="cls-5" d="M60.24,49.22c.31.4,0-.4,0,0Z" transform="translate(-10.98 -2.86)"/><path class="cls-5" d="M58.77,47.42l.59.39c0-.2-.26-.71,0-.6C58.83,46.74,58.77,47,58.77,47.42Z" transform="translate(-10.98 -2.86)"/><path class="cls-5" d="M58,47.21l.28.21C58.29,47.34,58.26,47.25,58,47.21Z" transform="translate(-10.98 -2.86)"/><path class="cls-5" d="M58.87,47.89l-.6-.47c0,.15-.22.29.26.23C58.32,47.72,58.57,47.72,58.87,47.89Z" transform="translate(-10.98 -2.86)"/><path class="cls-5" d="M59,48.29c.09.39.28.84-.3.44C59.53,49.7,59.83,49.26,59,48.29Z" transform="translate(-10.98 -2.86)"/><path class="cls-5" d="M59.43,52l.11.53.44.23C59.77,52.66,59.6,51.86,59.43,52Z" transform="translate(-10.98 -2.86)"/><path class="cls-5" d="M57,44.15c-.15,0-.26.39-.41.52.12.1.29.29.33.26s0-.23,0-.39S56.94,44.22,57,44.15Z" transform="translate(-10.98 -2.86)"/><path class="cls-5" d="M56.62,44.67l-.56-.53C56.33,44.74,56.49,44.78,56.62,44.67Z" transform="translate(-10.98 -2.86)"/><polygon class="cls-5" points="46.29 44.71 47.43 45.37 46.15 44.52 46.29 44.71"/><polygon class="cls-5" points="44.78 38.82 45.29 39.03 44.48 38.62 44.78 38.82"/><path class="cls-5" d="M54.86,40.07c.4.14.24-.6.55-.4a3.44,3.44,0,0,0-1.07-.92A2,2,0,0,1,54.86,40.07Z" transform="translate(-10.98 -2.86)"/><path class="cls-5" d="M53.75,38.33a3.76,3.76,0,0,0,.59.42A2,2,0,0,0,53.75,38.33Z" transform="translate(-10.98 -2.86)"/><path class="cls-5" d="M55.55,43a.79.79,0,0,0,.12-.71l-.25.45Z" transform="translate(-10.98 -2.86)"/><path class="cls-5" d="M55.42,42.77v0l-.26-.56Z" transform="translate(-10.98 -2.86)"/><path class="cls-5" d="M55.58,43.07l0-.06S55.52,43.07,55.58,43.07Z" transform="translate(-10.98 -2.86)"/><path class="cls-5" d="M56.48,45.78l-.28-.15a.75.75,0,0,0-.23-.07c-.19,0-.38-.06-.42.26a.37.37,0,0,0,0,.11.48.48,0,0,0,.37-.17C56,45.68,56.15,45.61,56.48,45.78Z" transform="translate(-10.98 -2.86)"/><path class="cls-5" d="M55.27,43.64l.27.73c.1-.07.18-.27.38-.13Z" transform="translate(-10.98 -2.86)"/><polygon class="cls-5" points="44 40.51 44.29 40.78 44.19 40.51 44 40.51"/><path class="cls-5" d="M54,39.69a2.66,2.66,0,0,1-.72-.89,7.58,7.58,0,0,0,.5,1.25C53.93,40,54.23,40.1,54,39.69Z" transform="translate(-10.98 -2.86)"/><path class="cls-5" d="M54.66,41.2l-.06-.06C54.59,41.2,54.6,41.24,54.66,41.2Z" transform="translate(-10.98 -2.86)"/><polygon class="cls-5" points="40.43 32.34 40.39 32.43 40.46 32.41 40.43 32.34"/><path class="cls-5" d="M53.75,40.15a.8.8,0,0,0,.47.57,4.85,4.85,0,0,1-.44-.67C53.72,40.05,53.68,40.06,53.75,40.15Z" transform="translate(-10.98 -2.86)"/><path class="cls-5" d="M53,37.41a4.63,4.63,0,0,0,.06.62C53.14,37.82,53.17,37.41,53,37.41Z" transform="translate(-10.98 -2.86)"/><path class="cls-5" d="M54.65,41a.08.08,0,0,1,0,0C54.72,40.89,54.69,40.92,54.65,41Z" transform="translate(-10.98 -2.86)"/><path class="cls-5" d="M54.65,41a2.2,2.2,0,0,0-.43-.27,2.61,2.61,0,0,0,.38.42A.88.88,0,0,1,54.65,41Z" transform="translate(-10.98 -2.86)"/><path class="cls-5" d="M48.4,35.35c.38-.13,1.11.48,1.08,1.35.61.52,1.54-.5,1.89-1.41-.17.05-.31.13-.87-.44-.07.33.34,1.73-.28,1.32-.65-.8-.26-.8-.3-1.33-.25.6-1.24-.82-1.78-.29l.64.67C48.69,35.29,48.38,35.09,48.4,35.35Z" transform="translate(-10.98 -2.86)"/><path class="cls-5" d="M52,36.6l.18.26a3,3,0,0,1,0-1.22c-.41-.37-.59-.4-.73-.37l.67,1.4Z" transform="translate(-10.98 -2.86)"/><path class="cls-5" d="M52.85,38.11c-.5,0-1-.61-1.21,0,.45.8.62.4,1,.81-.78-1.27.41.27.13-.8a4.81,4.81,0,0,1,.47.66A7.74,7.74,0,0,1,53.1,38v0h0c0,.08,0,.11,0,0l0,0a.55.55,0,0,1-.18,0c-.12-.43.07-.11.18,0h.06l-.9-1.21A6.48,6.48,0,0,0,52.85,38.11Z" transform="translate(-10.98 -2.86)"/><path class="cls-5" d="M54.39,45.75a.1.1,0,0,1,.07-.08C54.36,45.6,54.32,45.59,54.39,45.75Z" transform="translate(-10.98 -2.86)"/><path class="cls-5" d="M54.34,45.09c.1.07.29.07.42.4s-.19.1-.3.18c.2.13.61.51.49-.17l-.1-.07c-.15-.6,0-1.54.08-1.47A2.75,2.75,0,0,0,54.34,45.09Z" transform="translate(-10.98 -2.86)"/><path class="cls-5" d="M53.47,41.61l-.76-1,0,.74.19-.14C53.11,41.87,53.28,41.61,53.47,41.61Z" transform="translate(-10.98 -2.86)"/><polygon class="cls-5" points="40.55 32.11 41.03 32.05 40.13 31.71 40.55 32.11"/><polygon class="cls-5" points="39.76 30.7 40.14 30.58 39.73 30.31 39.76 30.7"/><path class="cls-5" d="M16.89,57.14l.05.37A1.42,1.42,0,0,0,16.89,57.14Z" transform="translate(-10.98 -2.86)"/><path class="cls-5" d="M17.4,54.31l-.18-.11C17.3,54.39,17.36,54.49,17.4,54.31Z" transform="translate(-10.98 -2.86)"/><path class="cls-5" d="M25.52,7.46c-.59.36-1.38.73-.93.84l.46,0A1.69,1.69,0,0,1,25.52,7.46Z" transform="translate(-10.98 -2.86)"/><path class="cls-5" d="M19.5,34.43l.17-.11-.31-.46Z" transform="translate(-10.98 -2.86)"/><path class="cls-5" d="M21.14,35.26l-.45.6A2.87,2.87,0,0,0,21.14,35.26Z" transform="translate(-10.98 -2.86)"/><path class="cls-5" d="M16.36,68.42a3.26,3.26,0,0,0,.33-.31C16.61,68.05,16.5,68.25,16.36,68.42Z" transform="translate(-10.98 -2.86)"/><path class="cls-5" d="M43,18.94a4.14,4.14,0,0,0-.27-1.15C42.74,18.4,42.6,19,43,18.94Z" transform="translate(-10.98 -2.86)"/><path class="cls-5" d="M12.52,55.34c0,.24.11.35.21.36C12.7,55.46,12.64,55.31,12.52,55.34Z" transform="translate(-10.98 -2.86)"/><path class="cls-5" d="M42.14,16.6a2.26,2.26,0,0,0,0,.26,4,4,0,0,1,.57.93A1.32,1.32,0,0,0,42.14,16.6Z" transform="translate(-10.98 -2.86)"/><path class="cls-5" d="M47.79,45.58a.57.57,0,0,1,0,.13C47.85,45.69,47.83,45.65,47.79,45.58Z" transform="translate(-10.98 -2.86)"/><path class="cls-5" d="M52.6,60.86a6.07,6.07,0,0,1-.56-.47A2.16,2.16,0,0,0,52.6,60.86Z" transform="translate(-10.98 -2.86)"/><path class="cls-5" d="M47.91,27.71c.18.29.06,0,0,0Z" transform="translate(-10.98 -2.86)"/><path class="cls-5" d="M47.15,30a.28.28,0,0,0-.25,0A.41.41,0,0,1,47.15,30Z" transform="translate(-10.98 -2.86)"/><path class="cls-5" d="M38.22,14.74v0C38.18,14.84,38.19,14.81,38.22,14.74Z" transform="translate(-10.98 -2.86)"/><path class="cls-5" d="M48,28.25a1.81,1.81,0,0,0-.09-.44A2.32,2.32,0,0,0,48,28.25Z" transform="translate(-10.98 -2.86)"/><path class="cls-5" d="M48.12,28.1l.1.28C48.31,28.39,48.33,28.33,48.12,28.1Z" transform="translate(-10.98 -2.86)"/><path class="cls-5" d="M47.67,27.29a2.83,2.83,0,0,1,.21.52c0-.08,0-.11,0-.1Z" transform="translate(-10.98 -2.86)"/><path class="cls-5" d="M22.32,51.92a.25.25,0,0,1,.05-.08C22.24,51.29,22.25,51.51,22.32,51.92Z" transform="translate(-10.98 -2.86)"/><path class="cls-5" d="M26.5,17.51v0l0,0Z" transform="translate(-10.98 -2.86)"/><path class="cls-5" d="M26.43,18.77a1,1,0,0,1,0-1.26H25.15Z" transform="translate(-10.98 -2.86)"/><path class="cls-5" d="M16.07,63.34l.5-.78c.49,1.09.19,1.78.83,1.07-1.35-.28.32-3.26-1-3.58l.36-.51c0,.15,0,.19,0,.35.82-1-.84-1-.42-2.33.18-.47.44-.78.54-.42L16.74,56c.08-.31.3-.19.22.12l.09-.84.05-.44.09-.65,0,0c-.14-.4-.34-1.17-.43-1.49.31-.65.1.27.31.08a1.12,1.12,0,0,0-.17-.66l-.59-.37c0-.38.47-.19,1.07.22a1.52,1.52,0,0,1,0,.92c.52-.5.72-.87.7-1.12-.26-.23-.68-.4-1.14-.73a2.79,2.79,0,0,1-.34-.28.7.7,0,0,1-.15-.15.43.43,0,0,1,0-.07.71.71,0,0,1,.05-.43,1.09,1.09,0,0,0,.31.27c.28-.28.37-.39.41-.54a.66.66,0,0,1,.08-.21.51.51,0,0,1,.24-.08,1.11,1.11,0,0,0-.7.27c-.27.21-.54.45-.78.21.05-.21.08-.3-.2-.56.49,0,.36-.17.43-.43l.6.24c-.11-.21-.4-.37-.54-.67a.5.5,0,0,1,.51,0,2.69,2.69,0,0,1,.55.35l.11-.07.15-.12c.07-.07.09-.11.06-.14s-.24-.05-.42-.06a.38.38,0,0,1-.32-.18s-.07-.08,0-.18a2.32,2.32,0,0,1,.41-.37,12.48,12.48,0,0,0,1.32-.66A9.85,9.85,0,0,0,19,45.47l.05-.92,0-.66c.39-.67.35.22.59,0l-.34-.76c.05-.16.19-.07.26,0-.06-.59-.61-.2-.57-1.09-.63-.4,1.43-1.51.92-2.76.24-.21.35.23.61.21a9.26,9.26,0,0,0-.43-2.7l.68-.91c-.66.62-1-.47-1.19-1.43a7.35,7.35,0,0,0-.68.51l0-1.43c.15-.13.32.06.52.35a1.87,1.87,0,0,0-.08-.28c.36-.42.65-.07.9.36l-.51.38c.29.43.62.84,1,.87a1,1,0,0,1-.05-.48c.08.12.15.2.23.17s0-.2-.12-.46l.77-.11-.26-.15.91-1.61c-.35-1.43-1.06-2.8-.78-4.85.36.64.79.34,1.38.54-.79.36-.17,1.6-.59,2.58.22-.51.47-.32.53-.15l-.05-2c.47.18.47-.28.81-.69-1.07.08-.25-1.54-.32-2.36.33.05.61.32.27,1.2,1-.78-.76-1.62.15-2.41-.06.22-.14.32,0,.46-.14-.6.46-1.78.66-1.4l-.06.22c.54-1.42,1.35-4.41.62-4.88a5.48,5.48,0,0,1,1.05.64c-.63-1.15-1.26-2.3-1.88-3.47.62.46,2.56.15,2.56,1.47A2.33,2.33,0,0,0,27,16c-.18.2-1.2.24-1.15-.1,1.07-.61.62-.47,1.65-1.3-.28.29-1.22-.47-1-1,.13.14,1.08.34,1.12.58L27,12.41c.06.41.87.39,1.28.21-.27.06.46-1.13.5-1.52l-.46.46c.76-1.4-.87-2.09-.1-3.52a1.51,1.51,0,0,0,.64.55,1,1,0,0,0,.48.12.42.42,0,0,0,.34-.08,4.09,4.09,0,0,1-.78-1.74,2.6,2.6,0,0,1,.75-2.67l.25-.14c.15.08.29.17.43.26A4.59,4.59,0,0,1,31.76,4a5.45,5.45,0,0,0-1.6,1.71,3.4,3.4,0,0,0-.27,1.53,5.32,5.32,0,0,0,.16,1.13c.35,0,.3.23.52-.09a.66.66,0,0,1,.14.64.55.55,0,0,1,.42-.14l.1,0A.69.69,0,0,1,31.37,8c.15-.17.36-.26.39-.58a1.54,1.54,0,0,0-.85.63,1,1,0,0,0-.09.18,1.68,1.68,0,0,1-.15-1,1.27,1.27,0,0,1,.54-.89,1.07,1.07,0,0,1,1.13,0c.1.21-.05.49-.2.76a3.23,3.23,0,0,0-.31.69c.13-.26.82-.07.78.15a1.53,1.53,0,0,0-.43.13c.13.42,1-.35,1,.74a1.43,1.43,0,0,1,0,.67c0,.28-.12.33.07.26a14.23,14.23,0,0,1,1.48-1.29,3.23,3.23,0,0,1,1.63-.76s.06.2.09.46,0,.47,0,.75a5.68,5.68,0,0,1-.07,1.4c-.29.78-1.67-.15-1.92.52.18-.06.52.12.65.21,0,.4-.58.11-.15.8.67-.18.66,1.5.68.09.52.62.24.81.67,1.63.27-.46,1.71.08,2.23.7-.18,0-.3.29-.36.42.65,1.47.75,2.38,1.41,3.74-.09.19,0,.93-.35.79a1.51,1.51,0,0,1,.71.62c-.13,1.07-.53-.88-.86.05.38-.13,1,.83,1.52,1.31.46-.46-.56-1.42-1.07-1.9.75-.39,2,.26,3.09,1.48.76,1-.24.72,0,.86,1,2.14,2.23,1.11,2.59,3.1-.13.93-.94.52-1.21.85-.65-.81-.41-1.54-.75-2.14l.16.86a1.94,1.94,0,0,1-.77-1.14c-.13.79,1.74,3.55,2.18,5.36.31.2.73.61.8.28l-.33-.48c.14-.66,1,.68.88-.05a4.38,4.38,0,0,1,1.73,2.16l-.46.45c.15-.1,0-.79-.3-1,.45.27,0,1.84,1,1.92l0-.87c.63.54,1.65,1.09,1.92,2,.34-.66-.16-.17.15-1.09-.51.92-1.09-2.19-1.48-.93.41-1-.25-1.23,0-2.35-.17.11-.2.46-.48-.3a.73.73,0,0,1-.24-.07v0s0,0,0,0a.88.88,0,0,1-.09.5c-.59-.14-1.17-1.28-1.58-1.55-.14-.47.3.07.37-.26l-.62-.41c.37-.26.08-1.46.83-.58l-.44-.91a2.92,2.92,0,0,0-.74-1.77c-.14-.47-1-.84-.5-.63l-1-1.28.09-.06c-.69-1.41-2.11-2.54-2.17-4.51a4.73,4.73,0,0,1-1-1.69l.27-.33c-.42-.54-.54-2-1-2.07.62-1.12-1.23-3-1.58-4.19l-.48.19a6.4,6.4,0,0,0-.6-1.08A7.27,7.27,0,0,0,36.6,6.27l-.31.33a15.59,15.59,0,0,1-1.56-1.72,4.71,4.71,0,0,0-2.56-1.56c.16-.15.68,0,1,.28a3.36,3.36,0,0,0-3.77-.32c-1.21.64-1.77,1.75-2.65,2.49A3,3,0,0,1,26,7a.39.39,0,0,0,.05-.14S26,7,26,7.05a5.87,5.87,0,0,0-.46.41,2.1,2.1,0,0,0,.42-.32,5.72,5.72,0,0,0-.37,1.2l-.52,0,0,.1c-.34.34.07.42.5.35a2,2,0,0,0,0,.65c-.86,0-.19,1.17-1.14,1.32.26.42-.5,2.17.23,2.68-.11,0-.2.08-.13-.15a2,2,0,0,0-.42,1.34h-.64l.44,1.27c-.56.48-.85.67-1.09-.08.2,1.68-.14,1.27.15,2.72l-.36-.18c-.13.45.16,1.32-.24,1.49-1,.77-1.6,4.88-3,7.24,1.26-.17-.85,1.05,0,1.4-.31.07-.56.39-.67-.09-.11,1.38-1,1.85-.5,3-.31.07-.31-.39-.5-.3,0,.12.11.48-.08.57s-.17-.25-.23-.49c-.33,1.35.45,1.72,1.2,2a1.07,1.07,0,0,0-.22,1.56c-.32.17-.69.49-.55-.36-.17.45-1.13,2.77-.52,3-.2.11-.22.64-.18.79a16.73,16.73,0,0,0-.59,2.18l.18-.27c.64.6-.05.91-.16,1.77l-.07-.05c-.5.9-.49,1.13-.48,1.34a1.18,1.18,0,0,1-.06.41,2.48,2.48,0,0,1-.16.35,2.6,2.6,0,0,1-.25.32l.46.11c.46.23.27.62-.09.85-.63.1-1,0-1.53.67l.54-.1c-.16.37-.73.39-1.44.6a3,3,0,0,0-1.69,1.06c-.17.17,0-.38.08-.69C11,47.77,11.2,48,11.43,48s.55.08.51,1c-.34.33-.87-.58-.94.81a1.64,1.64,0,0,0,.14.89,6.57,6.57,0,0,0,.63,1.19c.13.2.28.41.43.62l.23.31.12.15s0,0,0,0a.39.39,0,0,1,.18.35l0,.06.12-.09a.52.52,0,0,1,.46-.13.42.42,0,0,1,.2,0c0,.24-.31.62-.51.86a1,1,0,0,0-.16.34,1.83,1.83,0,0,0-.09.39,1,1,0,0,0,.19.74.34.34,0,0,1-.23.12c.1.68,0,2.17.37,2.64-1.74.34.18,4.18-1.32,3.95l-.18,2.06-.15-.08a2.64,2.64,0,0,0,.43,2.34c-.13.31-.25.08-.33,0a4.31,4.31,0,0,0,0,2.54,3.57,3.57,0,0,0,1.68,1.73c-.08.17-.14.33-.21.5a3.34,3.34,0,0,1,.69.59A6.56,6.56,0,0,0,15,73a4.67,4.67,0,0,0,1.92.61A3.65,3.65,0,0,0,19,73.14c0,.06,0,.17-.23.3A14.54,14.54,0,0,0,21,72.26a6.43,6.43,0,0,0,1.83-1.88,5.17,5.17,0,0,0,.5-1,2.65,2.65,0,0,0,.2-1,1.18,1.18,0,0,0-.57-1l-.2-1.43c-.44,1.73-.72-.4-1.14.27,0-.71.84-1.69.79-.83l-.11.12c.87.48.7-2.12,1.32-2,.27-1.73.67-3.43,1-5.1l.55-2.5.23-1.25.16-1a3.7,3.7,0,0,0-.74.06l.12-.7a.36.36,0,0,1,.49.43c.32,0,0-.42-.21-.78a.63.63,0,0,0-.11-.18c.47-.11.57,0,.62.18a2.51,2.51,0,0,0,0,.39s0,0,.05,0h0l.19-.16-.13,0c0-.32-.2-.59.35-.83s.49.26.72.17c0,0,.11,0,.34-.15l1.31-.6-.77-.25c.44-.55,1.22-.59.33-.87,1.33.45,5-2.13,5.63-2.12a5.7,5.7,0,0,1,2.37-1.64c-.29,0-.74-.49.14-.84.3,1.35,1.79-.26,2.9.27-.45-.14.13-.46.65-.8s.8-.58.31-.85c.53-.13.24.44.64.6a2,2,0,0,1,1.49-.68,4.69,4.69,0,0,0,.55,1.58c.16-.06.28-.44.63-.31A5.79,5.79,0,0,0,43.22,47c.28.38,1.1-.07.92,1,.08-.17.2-.43.39-.18a23.81,23.81,0,0,0,3.16,6.29,67,67,0,0,1,3.86,6.39c-.25-.75.1-.43.49-.06-.19-.3.31-.3.42-.52a10.29,10.29,0,0,0,1.34,1.92c.36-.16.91.16,1.55.39s1.38.31,1.53,0a4.81,4.81,0,0,1-.85,0c.62-.24.26-.73,0-1.26a1.67,1.67,0,0,1-.1-1.54c-.52.22-.83-.35-1.09-.92a1.78,1.78,0,0,0-1.46-1.3c-.06-.36.4,0,.46-.28-.53,0-.89-.26-1.23-1h.14c-1.42-1.74-1.65-2.83-2.66-5.16l-.32.4a2,2,0,0,1-.16-1c-.94-.22.71,1.39-.26,1.26.47-1.09-1.86-3.52-1.1-4.48-.39-.79-.38.47-.76-.31l.16-.34-.44,0a.93.93,0,0,1,.22-1.1,2,2,0,0,0,.33.45,2.78,2.78,0,0,0-.52-1.26c-.1-.13-.34-.53-.47-.76a2.9,2.9,0,0,1-.27-.55l.42,1.3c-.9-1.56-1.76-3.45-2.64-5.27A29,29,0,0,0,39,41.82l.32.09-.55.39a3,3,0,0,1-.37.21,2.48,2.48,0,0,1-.6.2,4.31,4.31,0,0,0-1.63.69l0-.08a2.82,2.82,0,0,1-1.16.94c.32-.46-1.06,0-.62-.59-1.52,1.29-.69.76-1.44,2.08l-.43-.2a1.89,1.89,0,0,1-1,1.2c.56-.64-.82-.22-.21-1-2.19.21-2.33,2.11-3.71,1.48-.36,1.34,1.84-.3,1.47.14.55.1-.34,1-1,1.23s-1.58-.66-3,.1c.15-.07.13-.14.27-.21-.35,0-.52.22-.84.46a3.23,3.23,0,0,1-1.46.64c-.09.61-.91.65-.93,1a1.16,1.16,0,0,0,.27.36v-.17l1.56-1a6.8,6.8,0,0,0-1.14,1.28,3.58,3.58,0,0,1-.15,2.06,3.36,3.36,0,0,1-.36-1.19c-.29.47,0,1.11-.27,1.6-.6-.16-.17-1.74-.2-3.14a3.19,3.19,0,0,0,.71-.64,2.05,2.05,0,0,0-1,.47c0,.79.14,1.54-.34.81a2.45,2.45,0,0,1,.23,2,7.23,7.23,0,0,0-.16.83,1.49,1.49,0,0,0,.2.83l-.46-.14a2,2,0,0,1,.17.89l-.53-.66c.41,1-.69,1.63-.53,2.51.25-1.77.63-.31,1.08-1,.31,2.28-1.41,1.07-1.57,3.55,0-.34.48-1.2.62-.65a3.51,3.51,0,0,1-.74,1.28c-.17,1.64.52-.17.7.57-.66.46.1.83.16,1.58L20,62.55c-.62,1.8.91.66.26,2.26L19.67,64l0,.89-.51-.27a3,3,0,0,1-.24,2.19c.38-.16.84.28.71,1.08a.29.29,0,0,1-.34,0c-.07,0-.08,0-.19.38a1.73,1.73,0,0,1-.28-.4c0-.17,0,0,.23-.33-.14-.08-.25-.31-.39-.4a1.5,1.5,0,0,0-.24.47.51.51,0,0,0-.06.18c0,.2-.05.37-.07.43a.42.42,0,0,1,.18-.13,2.12,2.12,0,0,1,.13,1c-.23-.05-.23-.23-.28-.39-.06.13,0,.38-.18.54a3.14,3.14,0,0,1-.34-1,1,1,0,0,1-.18.59c-.11-.14-.32-.41-.29-.56s-.15.09-.38.22-.67.11-.67-.1a.28.28,0,0,1-.24.06A.92.92,0,0,1,16,68a.17.17,0,0,0,0-.07v-.06h0l-1.53.42h.07l.08,0,.18,0a5.88,5.88,0,0,1,.7-.16l.36-.05H16l0-.07a5.4,5.4,0,0,0-.23-.65l.73-.61c-.08-1-1,.89-1.09-.75-.11-1.2.64-.38.88-.77a2.66,2.66,0,0,1-.16-2.77A4.69,4.69,0,0,1,16.07,63.34Zm0-13.29c.13.14.51.25.29.44C15.76,50.59,15.94,50.33,16,50.05ZM20.9,32.84c.1.22,0,.48-.31.74A1.38,1.38,0,0,1,20.9,32.84Zm24.92-8.29h0C45.7,24,45.73,24.17,45.82,24.55Zm.35,1.12c.12.08.17,0,.21,0-.15,0-.27-.25-.38-.53C45.92,25.24,45.92,25.42,46.17,25.67ZM27,52.06h-.26C27.18,51.7,27.11,51.87,27,52.06Z" transform="translate(-10.98 -2.86)"/><path class="cls-5" d="M21,35.16a.46.46,0,0,1-.28,0C20.72,35.31,20.81,35.34,21,35.16Z" transform="translate(-10.98 -2.86)"/><path class="cls-5" d="M16.3,68.47h0l.06-.06Z" transform="translate(-10.98 -2.86)"/><path class="cls-5" d="M34.48,11.41a1.05,1.05,0,0,1,0-.52C34.39,10.93,34.35,11.07,34.48,11.41Z" transform="translate(-10.98 -2.86)"/><path class="cls-5" d="M49.74,30.75l-.46-.6a1.08,1.08,0,0,1,.17.67C49.54,30.75,49.62,30.55,49.74,30.75Z" transform="translate(-10.98 -2.86)"/><path class="cls-5" d="M50.06,37.84c.1.07.11.2.21.27l.19-.13C50.23,37.57,49.92,37.37,50.06,37.84Z" transform="translate(-10.98 -2.86)"/><path class="cls-5" d="M48.63,32.09c-.34.24,0,.59.31,1a.3.3,0,0,1,0-.08C49.47,32.9,49.05,32.5,48.63,32.09Z" transform="translate(-10.98 -2.86)"/><path class="cls-5" d="M49,33.21a2.13,2.13,0,0,1,.23.42C49.47,33.58,49.19,33.44,49,33.21Z" transform="translate(-10.98 -2.86)"/><path class="cls-5" d="M47.09,26.86c0,.26.53-.1.45.1C48.13,27,46.23,25.78,47.09,26.86Z" transform="translate(-10.98 -2.86)"/><polygon class="cls-5" points="36.65 30.22 37.01 29.83 36.52 29.75 36.65 30.22"/><path class="cls-5" d="M46.06,29.26l.26.8c.07,0,.16,0,.26.12C46.36,29.72,46.19,29.18,46.06,29.26Z" transform="translate(-10.98 -2.86)"/><path class="cls-5" d="M46.58,30.18a1.48,1.48,0,0,0,.38.56A3.08,3.08,0,0,0,46.58,30.18Z" transform="translate(-10.98 -2.86)"/><polygon class="cls-5" points="35.99 29.28 35.97 29.01 35.73 28.48 35.99 29.28"/><path class="cls-5" d="M42,21.28c-.18-.25-.37-.49-.54-.74-.19,0-.18.26,0,.53S41.94,21.48,42,21.28Z" transform="translate(-10.98 -2.86)"/><path class="cls-5" d="M42.06,24.34c0-.27.07-.33.16-.53l-.57.25Z" transform="translate(-10.98 -2.86)"/><path class="cls-5" d="M40.71,22.05c-.2,0-1.05-.95-.48.06C40.42,22.11,41,22.86,40.71,22.05Z" transform="translate(-10.98 -2.86)"/><polygon class="cls-5" points="24.42 6.54 24.53 6.75 25.43 6.27 24.42 6.54"/><path class="cls-5" d="M29.88,10.38c.64-.78-.47-.48.19-1.15-.12-.32-.54.55-.63.25C29.41,10.13,29.16,10.37,29.88,10.38Z" transform="translate(-10.98 -2.86)"/><path class="cls-5" d="M29.44,9.48a2,2,0,0,0,0-.35A1.28,1.28,0,0,0,29.44,9.48Z" transform="translate(-10.98 -2.86)"/><path class="cls-5" d="M55.19,63.06a6.51,6.51,0,0,0,1.1.48,4.57,4.57,0,0,1-.68-.49Z" transform="translate(-10.98 -2.86)"/><path class="cls-5" d="M57.41,62.62a6.08,6.08,0,0,0,.33.62,4.72,4.72,0,0,0,.59-.71C58.1,62.61,57.61,62.78,57.41,62.62Z" transform="translate(-10.98 -2.86)"/><path class="cls-5" d="M17.28,49.48l-.16,0c-.17,0-.18,0-.22.06A1.62,1.62,0,0,1,17.28,49.48Z" transform="translate(-10.98 -2.86)"/><polygon class="cls-5" points="6.39 55.24 6.43 55.08 5.81 55.28 6.39 55.24"/><path class="cls-5" d="M17.05,65.77c.06-.3,0-.65,0-1C17.1,65.48,16.31,65.78,17.05,65.77Z" transform="translate(-10.98 -2.86)"/><path class="cls-5" d="M90,48.22c.14,0-.21-.74-.25-.89C89.62,47.58,90.08,48.42,90,48.22Z" transform="translate(-10.98 -2.86)"/><polygon class="cls-5" points="77.84 47.87 77.75 47.54 77.78 48.43 77.84 47.87"/><path class="cls-5" d="M87.06,51.42c.69,1.26.55-.47,1-.12l.17.28L88,50.45C87.69,50.77,87.47,51.68,87.06,51.42Z" transform="translate(-10.98 -2.86)"/><path class="cls-5" d="M85,48.92c.27.49,0,.52.29.07a.62.62,0,0,1-.09-.11A.4.4,0,0,1,85,48.92Z" transform="translate(-10.98 -2.86)"/><path class="cls-5" d="M85.18,48.88c.16-.11-.3-.39,0,0Z" transform="translate(-10.98 -2.86)"/><path class="cls-5" d="M84.44,49.51,84.5,49c-.17-.28-.41-.26-.42-.52C83.93,48.78,84.1,49.07,84.44,49.51Z" transform="translate(-10.98 -2.86)"/><path class="cls-5" d="M84.59,50.57l0-.24C84.57,50.21,84.52,50.18,84.59,50.57Z" transform="translate(-10.98 -2.86)"/><path class="cls-5" d="M84.74,49.81l-.1.52c.12.2.29.63.06-.2C84.84,50.53,84.74,50.13,84.74,49.81Z" transform="translate(-10.98 -2.86)"/><path class="cls-5" d="M85,50c.25.24.49.35.43.91C85.8,50.49,85.37,49.58,85,50Z" transform="translate(-10.98 -2.86)"/><path class="cls-5" d="M87.51,52.83l.34.31,0-.51C87.84,52.89,87.33,52.41,87.51,52.83Z" transform="translate(-10.98 -2.86)"/><path class="cls-5" d="M82.65,49.42c.09.28.37.72.53,1.07l.06-.39A1.64,1.64,0,0,1,82.65,49.42Z" transform="translate(-10.98 -2.86)"/><path class="cls-5" d="M83.18,50.49l-.08.59C83.37,51.05,83.32,50.8,83.18,50.49Z" transform="translate(-10.98 -2.86)"/><polygon class="cls-5" points="74.14 49.21 74.19 48.02 74.06 49.26 74.14 49.21"/><polygon class="cls-5" points="70.62 46.92 70.52 46.21 70.63 47.3 70.62 46.92"/><path class="cls-5" d="M81,50.16c-.09-.59-.51-.86-.52-1.24-.15.17-.12.69-.11,1.17C80.4,49.8,80.58,49.79,81,50.16Z" transform="translate(-10.98 -2.86)"/><path class="cls-5" d="M80.33,50.79a4,4,0,0,0,0-.7A2.27,2.27,0,0,0,80.33,50.79Z" transform="translate(-10.98 -2.86)"/><path class="cls-5" d="M82.59,51.12a2.19,2.19,0,0,0-.53-.72l.41.75Z" transform="translate(-10.98 -2.86)"/><path class="cls-5" d="M82.49,51.18l0,0-.24.05Z" transform="translate(-10.98 -2.86)"/><path class="cls-5" d="M82.61,51.12h0C82.63,51.2,82.64,51.22,82.61,51.12Z" transform="translate(-10.98 -2.86)"/><path class="cls-5" d="M84.13,51.62a1.94,1.94,0,0,0,.45,1.67C84.49,52.7,84.15,52.38,84.13,51.62Z" transform="translate(-10.98 -2.86)"/><path class="cls-5" d="M83.13,52.06l.36.07a2.09,2.09,0,0,1-.26-.75Z" transform="translate(-10.98 -2.86)"/><polygon class="cls-5" points="72.11 49.51 72.15 49.2 72.02 49.18 72.11 49.51"/><path class="cls-5" d="M81.11,51.35a.59.59,0,0,1-.25.59.83.83,0,0,0,.59.05C81.38,51.73,81.28,51.25,81.11,51.35Z" transform="translate(-10.98 -2.86)"/><path class="cls-5" d="M81.81,51.34v0C81.84,51.45,81.86,51.47,81.81,51.34Z" transform="translate(-10.98 -2.86)"/><path class="cls-5" d="M79.35,52.52l.08.14-.05-.14Z" transform="translate(-10.98 -2.86)"/><path class="cls-5" d="M81.54,52.13c.18.1.18-.12.15-.39a.58.58,0,0,1-.24.25C81.48,52.11,81.51,52.18,81.54,52.13Z" transform="translate(-10.98 -2.86)"/><path class="cls-5" d="M80.05,51.33c.13.14.26.25.38.36C80.27,51.46,80,51.11,80.05,51.33Z" transform="translate(-10.98 -2.86)"/><path class="cls-5" d="M81.67,51.19v0C81.57,51,81.61,51.07,81.67,51.19Z" transform="translate(-10.98 -2.86)"/><path class="cls-5" d="M81.67,51.19a3.61,3.61,0,0,0,0,.55,1.11,1.11,0,0,0,.11-.35A1.74,1.74,0,0,1,81.67,51.19Z" transform="translate(-10.98 -2.86)"/><path class="cls-5" d="M80.84,57.82c-.26-.75-.19-1.56.4-.87.06-.66-1-3-1.81-4.29a1.85,1.85,0,0,1,.11,1.17c.25.36,1,.7,1,1.46-.23.53-.41-.14-.75-.46.51.86,0,1.52.63,2.85l.15-.61C80.67,57.28,80.68,57.66,80.84,57.82Z" transform="translate(-10.98 -2.86)"/><path class="cls-5" d="M80,52.52l.08-.14c-.18-.07-.39-.33-.79-.84a2.22,2.22,0,0,0,.09,1L80,52.4Z" transform="translate(-10.98 -2.86)"/><path class="cls-5" d="M80.6,52.18c.22.84.07,1.29.58,2.09.32-.18,0-.76,0-1.19-.47.41,0-.51-.59-.81a.67.67,0,0,1,.22-.33,2.16,2.16,0,0,1-.43-.25l0,0h0c.06.09.1.15,0,.1v0a2.54,2.54,0,0,1,.09.31c-.22-.1-.1-.19-.09-.31l0-.12h0l-.39.65C80.24,52.45,80.38,52.37,80.6,52.18Z" transform="translate(-10.98 -2.86)"/><path class="cls-5" d="M85,55.13a.51.51,0,0,1-.09-.18C84.87,55.06,84.88,55.14,85,55.13Z" transform="translate(-10.98 -2.86)"/><path class="cls-5" d="M84.54,54.74c0-.13-.09-.47.07-.43s.15.38.26.64a1.06,1.06,0,0,0-.35-1v.13a4,4,0,0,1-1-1.21A18.55,18.55,0,0,0,84.54,54.74Z" transform="translate(-10.98 -2.86)"/><path class="cls-5" d="M82.63,53.67l-.31.57.51.61-.18-.42C83,54.5,82.72,54,82.63,53.67Z" transform="translate(-10.98 -2.86)"/><polygon class="cls-5" points="68.16 49.28 67.9 48.41 68.09 49.71 68.16 49.28"/><polygon class="cls-5" points="67.6 49.62 67.34 48.87 67.35 49.37 67.6 49.62"/><path class="cls-5" d="M48.53,75.17l0,.27A.64.64,0,0,0,48.53,75.17Z" transform="translate(-10.98 -2.86)"/><path class="cls-5" d="M49.48,74.78l-.14-.37C49.39,74.63,49.44,74.78,49.48,74.78Z" transform="translate(-10.98 -2.86)"/><path class="cls-5" d="M63.71,58.2c-.47-.61-1.11-1.59-.76-.77l.37.78C63.41,58,63.55,58.06,63.71,58.2Z" transform="translate(-10.98 -2.86)"/><path class="cls-5" d="M55.45,67.08l.16.22-.19-.82Z" transform="translate(-10.98 -2.86)"/><path class="cls-5" d="M56.7,70.45l-.47-.4A2,2,0,0,0,56.7,70.45Z" transform="translate(-10.98 -2.86)"/><path class="cls-5" d="M44,78.53l.28.85C44.48,79.26,44.17,78.92,44,78.53Z" transform="translate(-10.98 -2.86)"/><path class="cls-5" d="M72.5,55.12c-.29-.26-.48-.34-.62-.33C72.27,55.18,72.7,55.81,72.5,55.12Z" transform="translate(-10.98 -2.86)"/><path class="cls-5" d="M44.91,66.69a1,1,0,0,0,.12.53A.8.8,0,0,0,44.91,66.69Z" transform="translate(-10.98 -2.86)"/><path class="cls-5" d="M71.39,55l.16.16c.07-.19.16-.35.33-.35C71.6,54.5,71.34,54.35,71.39,55Z" transform="translate(-10.98 -2.86)"/><path class="cls-5" d="M27,89l-.1,0C27,89,27,89,27,89Z" transform="translate(-10.98 -2.86)"/><path class="cls-5" d="M16.64,86.4a.57.57,0,0,1,.14-.23C16.71,86.16,16.65,86.22,16.64,86.4Z" transform="translate(-10.98 -2.86)"/><path class="cls-5" d="M76,53c.11-.1,0-.1,0,0Z" transform="translate(-10.98 -2.86)"/><path class="cls-5" d="M77.85,56a2.17,2.17,0,0,0,.1.42A2.84,2.84,0,0,1,77.85,56Z" transform="translate(-10.98 -2.86)"/><path class="cls-5" d="M72,60.52h0C72.1,60.66,72.08,60.63,72,60.52Z" transform="translate(-10.98 -2.86)"/><path class="cls-5" d="M76.35,53.34a.76.76,0,0,0-.26-.18A1.11,1.11,0,0,0,76.35,53.34Z" transform="translate(-10.98 -2.86)"/><path class="cls-5" d="M76.17,53l.15,0C76.28,52.86,76.23,52.78,76.17,53Z" transform="translate(-10.98 -2.86)"/><path class="cls-5" d="M75.85,53.15a.26.26,0,0,1,.24,0A.3.3,0,0,1,76,53Z" transform="translate(-10.98 -2.86)"/><path class="cls-5" d="M34.34,80.69l-.07,0C34.36,81,34.37,80.93,34.34,80.69Z" transform="translate(-10.98 -2.86)"/><path class="cls-5" d="M63.63,67.9s0,0,0,0l0,0Z" transform="translate(-10.98 -2.86)"/><path class="cls-5" d="M63.42,68.68c-.21-1.08-.05-1,.18-.84l-1.06-2.27Z" transform="translate(-10.98 -2.86)"/><path class="cls-5" d="M46.45,76.49l.65.55c.21,1.33-.24,1.06.53,1.9-1.18-2.45,1-.82-.14-3.28l.45.42c-.07,0,0,.15-.08.15,1,1-.58-1.9.09-1.8a.9.9,0,0,1,.58.74l.1-.8c.13,0,.31.44.17.44l.51-.47,0,.07a13.31,13.31,0,0,1-.21-1.4c.32.28,0,.29.23.58l.06-.75c.43.58.44,1.32.17,1.34,1.47,2.31,0-.75,1.33.38l-.17.45c.85,1.31.86.69,1.61,1.4-.29-.42-1.72-1.87-1.64-2.65.18.14.36.16.32-.42.41.87.5.57.71.41l.52,1.17A5.63,5.63,0,0,0,52,73.29c.34,0,.81.86,1.22,1.59.54,0-1-1.3-.53-1.77.58.27.64-.33.8-1.23.45.29.26.74.51,1l-.17-1c.07,0,.18.3.23.45,0-.45-.5-1.18-.32-1.64-.47-1.33,1.48,1.61,1.24,0a7.13,7.13,0,0,1,.49,1.18,7.69,7.69,0,0,0,.06-2.39l.71.61a4.9,4.9,0,0,1-.78-3c-.28-.38-.53-.72-.66-.87l.24-.85a3.21,3.21,0,0,1,.39,1.12l0-.32a3.6,3.6,0,0,1,.7,1.79l-.48-.65a11.11,11.11,0,0,0,.71,2.29.58.58,0,0,1,0-.38,2.46,2.46,0,0,0,.16.5c.07.11,0-.17,0-.51l.66,1.27L57,69.94l1,.55c-.07-1.52-.47-3.64.07-4.5a14.76,14.76,0,0,0,1.07,2.75c-.71-1.13-.37.76-.86.67.25,0,.43.61.46.82l.24-1.39c.37,1,.43.64.77,1-.89-1.8,0-1.45.07-2.13.27.61.46,1.28.06,1.27.94,1.24-.4-2.38.46-1.35-.08,0-.16,0-.07.31,0-.64.64-.4.74.19l-.08,0c.64,0,1.72-.67,1.18-2.28.08.2.68,1.93.77,2.27l-1.09-5.72c.45,1.39,2.06,4.5,1.89,5.45.21.14.47.3.56-.29a7.58,7.58,0,0,1-.92-2,12,12,0,0,0,1.49,1.84c-.25-.24-.93-2.43-.69-2.45.09.33.84,2.1.85,2.36L64.64,65a8.2,8.2,0,0,0,1,2.33c-.22-.39.48-.14.54-.41l-.41-.39c.73.08-.54-3.19.12-3.32.09.47.84,2.74,1.25,2.89-.27-1.13-1.35-5.42-1.12-6.45l.33.57.15-.85c.36,1.71.94,5.4,1,6.87.42.4.34.7.67.52a.85.85,0,0,1,.06,1l.94.07c-.52-1.24.13-1.49-.3-2.53l-.37,1.64c-.52-1.24-.86-3.76-.21-3.75a17.47,17.47,0,0,1,.92,2.69c-.09-.46.22-1,.39-.75l0,.77c.49.35-.12-1.87.72-.81.16,0,1,1.47.74.72a49.79,49.79,0,0,1-2.75-6.91A12.11,12.11,0,0,1,70,60.63c.65,1,.69,2.8,1.24,3.7a3.67,3.67,0,0,1-.16-1c.25.24.34,1.09.59.82-.44-1.3.65-.13-.27-1.14.16-.47.41.15.74,0a7.65,7.65,0,0,1-.59-3.39,5.61,5.61,0,0,0,.43.91c.65-.12,1.19.34,1.76.14.17.29.58.56.67,1.15,0-.25-.09-.71.07-.81.75,1-.32.32.43,1.54-.26-.74.07-1.19.14-1.74-.51-1.12-.66,0-.73.55A7.69,7.69,0,0,1,73.87,57c.32-.57.59,1,.59.69,1,0-.3-3,.86-2.18a12.36,12.36,0,0,1,1.11,2.7c-.24.53-.83-.41-1.07-.28l.5.36c0,.38-.15.73-.4.49C76,59.59,77,58.39,78,59a2,2,0,0,0-.19-1.18l-.16.22c-.5-.73,0-1.27-.43-1.55.07-.68,0-1.69.63-1.39l.51,1.12c-.14-.33-.53-.58-.51-.19,0-.57,1.21,1.32.83-.25l-.59-.69c.07-.69,0-2,.46-1.81-.6-1.07,0,.16-.79-1.07.84,1.57-.94.28.07,1.88-.85-1.44-.7-.49-1.54-1.67.16.38.4.68,0,.61,0,.11.05.27.06.36l0,0,0,0c0,.07,0,.08,0,0a2,2,0,0,1,.37.51c.18.93-.3,1.08-.3,1.59-.24-.11-.09-.46-.34-.83l0,.77c-.34-.83-1-1.22-.77-1.87l-.39.11c-.4-.39-.78-.46-.83,0-.25-.11-.1,1.1-.19.39l-.4.74-.09-.21c-.62.12-.68,1.85-1.92.59-.12.28-.22.62-.65.5l-.33-.7c-.16.35-1-.44-.86.36-1-1.85-1.39,0-2-.14l.34,1c-.33.06-.52.44-.76,1l.34.83c-.07.81-1.07-.28-1.56,0-.09-.34.08-.3.24-.14-1.34-1.66-.79,1.87-1.88.71,0,.36-.16.29-.34.12a.08.08,0,0,0,0-.06h-.07c-.11-.12-.24-.26-.36-.37a2.65,2.65,0,0,0,.33.39.85.85,0,0,0-.3.5l-.42-.88,0,0c-.28-.27,0,.48.39,1.12a2.59,2.59,0,0,0,0,.63c-.69-1.4-.23.65-1-.83.19.8-.59.89-.06,2.51-.08-.21-.17-.29-.09-.33-.25-.12-.5-.23-.48.28l-.52-1.11.2,1.69a3,3,0,0,1-.87-1.94c0,1.57-.27.69-.22,2.22l-.27-.75c-.16.1-.05,1.19-.4.62-.94-1.25-2,.59-3.51-.3,1.07,2.07-.86-.78-.22.9-.26-.48-.52-.71-.54-1.22-.31.71-1.1-.5-.87,1-.27-.48-.2-.79-.38-1.07,0,.13,0,.51-.16.23s-.1-.46-.11-.72c-.49.3.11,1.89.69,3.38-.55-.58-.64-.43-.43.62-.29-.44-.65-.88-.4-1.19-.21,0-1.41-.23-.92.95-.19-.27-.29,0-.28.18-.44.1-.52,0-.87.3l.2.14c.45,1.48-.2.46-.44.76l-.06-.14c-1.18-.71-.1.62-1.33-.23l.43.86c.76,1.91-1.13-.83-1.23.09l.37.43c.07.74-1.79-2.27-2.13-2.39-.12-.14,0-.3,0-.46-1.11-.82.44,1.18.11,1.66-.36-.58-.61-1.62-1-1.59-.38-.43,0,2.4-.91,1.41a2.14,2.14,0,0,1,.58,1.31c-.24.32-1.71-1.38-1.29.24a1.36,1.36,0,0,1-.23-.34c-.06.5-.48,1-.23,1.9-1.69-2.86-.78,2.19-2.14-.55l-.66.52-.13-.29c-.56.06-.4.8-.23,1.53-.2-.13-.25-.42-.32-.57-1-.21-1,0-.84,1.62L40,70.54c.12.59-1.73-.83-1.85.55a1.81,1.81,0,0,1-.14-.43c-.17,1.43-3.18-1.4-1.65,1.9l0,1.06c.76-.13.7,1.41,1.26,1.78-.14.32-1.18-.57-1-.91l.14.13c-.84-1.69-1.11-.11-1.74-1.22-1.18.84-3,.63-4.14,1.35l.93,1.14-.44.19c-.29-.22-.76-.86-.45-1-.6-.6-.09.89.08,1.16-.88-.12-.73-1.56-.91-1.48l-.17.24.14.11c.14.63.48,1.17.1,1.33-.37-.1-.61-.68-.73-.67s-.11-.1-.15,0l-.57.24.85.82c.1.61-.5.26.47,1.19-1.48-1.46-2.25.64-2.79.29.19.91-.11,1.11-.53,1.29.24.13,1.06,1.14.65,1.24-1.47-2.24-1.25-.52-2.67-1.87,1,.85-.7.92.76,2.1-.39,0-.63-.79-1.21-1.14,0,1.26-1.77.52-2.3,1.41a3.59,3.59,0,0,1,.84,1.14l-1.5-1c0,.25,1.15,1.68.11,1,.23.2.57.5.54.67-1.26-.06-1.8.8-2.41,1.56s-1.32,1.39-3.12.86c.65.32.57.49.44.64.21,0,.59.64.93,1l-1.49-.44c.8,1.07-.57.65.24,1.62l0-.33c.79,1.3,2.63,2.09,3.9,3.52-.89-1.48,2.4,1.21,1.18-1,.36.2.33.53.69.81-.45-.7-.43-1,.06-.9l.11.17c.55-.76,1.37-.44,2.49-.7l-.68-.67c.26,0,.49.15.72.26-.74-1.25-.53.34-1.39-1,1.49,1.27,1.24-1,2.8.57.27-.2-.78-.78-.51-1l.45.4-.42-.65c.25,0,.81.46,1.14.84-.08,0,0,.21-.05.28.66.36.47-.7.69-.59l-.48-.07c.37-1,1.71-1.14,1.71-2.61l-.33-.31c.05-1.07.74.06,1.12-.7l0,.11c-.15-.45-.12-.75.08-.84.16.54.89.61,1,1.23.08-1.16-.12-.78-.69-2.43l.53.54c-.26-.65-.45-1-.26-1.33.12.7.85.78,1.06,1.67,1.56.85,0-2,1.68-.27-.86-1.89-1.22-.56-1.3-1-.52-.45-.62-1.43-.29-1.4s1.85,1.92,2.35,1.54c-.06,0,0,.16,0,.19.49.3,0-.85.7-.3-.55-1.13.36-.15-.47-1.5l-.29.63c0-.53-.71-2.26.25-1.81a3.93,3.93,0,0,1,.26,1c.39.3.09-.43.49-.12.82,1.36-.41.69,0,1.89.51.47-.07-1.33.72.21-1-2,.66-.12.12-1.76l.49.82c0-.16-.15-.62,0-.67l.47,1.16c-.28-1.08,1,.43,1-.22-.58.38-.74-.89-1.36-1.33.07-1.52,1.74,1.85,2.31,1,0,.18-.71-.24-.77-.72a2.33,2.33,0,0,1,1,.63c.43-.49-.59-.79-.66-1.42.78.87,0-.57.07-1l.5.83c.94.15-.86-1.83.08-1.53l.45,1.3.11-.48.5,1c-.1-.89.11-.77.57-.69C40,79,39.56,78,39.84,77.79c.48.39.34.86.68.52.21.57.48,1.28-.13.61.14.28.21.57.35.85.53.46.59-.15.73-.24a.35.35,0,0,1-.27-.11l-.07-1.48a1.55,1.55,0,0,1,.4.85c.07-.16-.07-.59.07-.76a4.66,4.66,0,0,1,.68,1.87l.12-1.06c.2.27.74.66.8,1,.52.25,0-1.74.71-1.43a.82.82,0,0,1,0-.44c.47,0,1.24.61,1.2-.57L46,78.46c.22-.46-1.17-1.39-.81-2.16.23-.62.71,1,1,1.26-.11-.74-.39-2.21.52-1.39C46.72,76.47,46.52,76.34,46.45,76.49Zm4.25-2.74c0,.22.08.87-.22.38C50.11,73.08,50.41,73.53,50.7,73.75Zm6.16-5.25c.06.32-.11.22-.37-.07C56.54,68.32,56.66,68.32,56.86,68.5Zm18-14.19v0C74.55,54.08,74.68,54.19,74.89,54.31Zm.58.22a1,1,0,0,0-.12-.38c.05.24,0,.29-.17.27C75.3,54.64,75.42,54.78,75.47,54.53ZM29.53,76.1l.22.15C29.73,76.6,29.63,76.36,29.53,76.1Z" transform="translate(-10.98 -2.86)"/><path class="cls-5" d="M56.56,70.06a3,3,0,0,1-.24-.47A.72.72,0,0,0,56.56,70.06Z" transform="translate(-10.98 -2.86)"/><path class="cls-5" d="M43.93,78.37h0c0,.06.05.11.07.17Z" transform="translate(-10.98 -2.86)"/><path class="cls-5" d="M71.62,64.73a1.36,1.36,0,0,1-.35-.4C71.35,64.55,71.46,64.72,71.62,64.73Z" transform="translate(-10.98 -2.86)"/><path class="cls-5" d="M77.18,52.13l-.18.34c.11-.1.24.08.36.2C77.27,52.46,77.1,52.18,77.18,52.13Z" transform="translate(-10.98 -2.86)"/><path class="cls-5" d="M81.72,56.79c0-.13.09,0,.08-.18l-.17-.41A.37.37,0,0,0,81.72,56.79Z" transform="translate(-10.98 -2.86)"/><path class="cls-5" d="M78.58,55c.31.75.39.43.53.21,0,0,0,0,0,0C78.73,54.17,78.66,54.6,78.58,55Z" transform="translate(-10.98 -2.86)"/><path class="cls-5" d="M79.15,55.2a.18.18,0,0,1,.17-.09C79.18,54.68,79.21,55.05,79.15,55.2Z" transform="translate(-10.98 -2.86)"/><path class="cls-5" d="M75.83,53.82c.16.16-.31-1-.14-.7C75.42,52.11,75.52,54.52,75.83,53.82Z" transform="translate(-10.98 -2.86)"/><polygon class="cls-5" points="68.71 54.61 68.29 53.7 68.46 54.5 68.71 54.61"/><path class="cls-5" d="M77.89,57.36l.41.15a.54.54,0,0,1,0-.36C78.06,57.2,77.78,57.09,77.89,57.36Z" transform="translate(-10.98 -2.86)"/><path class="cls-5" d="M78.26,57.15a.21.21,0,0,0,.19-.25A.44.44,0,0,0,78.26,57.15Z" transform="translate(-10.98 -2.86)"/><polygon class="cls-5" points="68.39 55.05 68.23 54.89 67.98 54.91 68.39 55.05"/><path class="cls-5" d="M74.47,58.45l-.24.4c.09.33.25.5.33.32A1.1,1.1,0,0,0,74.47,58.45Z" transform="translate(-10.98 -2.86)"/><path class="cls-5" d="M76.47,60.63a3,3,0,0,1-.42-.65l.43,1.16Z" transform="translate(-10.98 -2.86)"/><path class="cls-5" d="M75.58,61.28c.08.33-.15,1.11.26.87C75.75,61.82,76,61.42,75.58,61.28Z" transform="translate(-10.98 -2.86)"/><polygon class="cls-5" points="58.91 58.89 58.99 58.84 58.26 56.94 58.91 58.89"/><path class="cls-5" d="M67.13,68c.57.3-.36-1.21.22-.78-.08-.48-.47-.35-.53-.77C66.76,67,66.54,66.81,67.13,68Z" transform="translate(-10.98 -2.86)"/><path class="cls-5" d="M66.82,66.46a3,3,0,0,0,0-.34A1,1,0,0,0,66.82,66.46Z" transform="translate(-10.98 -2.86)"/><polygon class="cls-5" points="4.13 83.46 3.62 83.35 4.23 83.72 4.13 83.46"/><path class="cls-5" d="M15.74,87.78l-1-.89.69,1C15.48,87.77,15.5,87.6,15.74,87.78Z" transform="translate(-10.98 -2.86)"/><path class="cls-5" d="M52.47,75.81l-.11-.29c-.18-.29-.25-.29-.38-.29Z" transform="translate(-10.98 -2.86)"/><polygon class="cls-5" points="37.8 73.61 37.87 73.6 37.26 72.6 37.8 73.61"/><path class="cls-5" d="M46.76,79.15c.14,0,.14-.31.28-.32C46.9,79.14,46.07,77.86,46.76,79.15Z" transform="translate(-10.98 -2.86)"/></svg>