<svg id="レイヤー_1" data-name="レイヤー 1" xmlns="http://www.w3.org/2000/svg" viewBox="0 0 188.79 231.68"><defs><style>.cls-1{fill:#fff;stroke-linejoin:round;stroke-width:7px;}.cls-1,.cls-3{stroke:#9fa0a0;}.cls-2{fill:none;stroke:#000;}.cls-2,.cls-3{stroke-miterlimit:10;}.cls-3{fill:#b5b5b6;stroke-width:6px;}</style></defs><path class="cls-1" d="M165.25,15.47l50.59,50.6a7,7,0,0,1,2.07,5V231a7.05,7.05,0,0,1-7,7.05H43.18A7.06,7.06,0,0,1,36.12,231V20.46a7.06,7.06,0,0,1,7.06-7H160.26A7.06,7.06,0,0,1,165.25,15.47Zm.76.29-.47,25-.34,17.75a7.08,7.08,0,0,0,7.12,7.22l17.76-.12,25-.17L190.55,40.6Z" transform="translate(-32.62 -9.91)"/><line class="cls-1" x1="33.57" y1="46.31" x2="129.85" y2="46.31"/><line class="cls-1" x1="140.56" y1="75.17" x2="154.46" y2="75.17"/><line class="cls-1" x1="140.56" y1="104.04" x2="154.46" y2="104.04"/><line class="cls-1" x1="33.57" y1="75.17" x2="47.67" y2="75.17"/><line class="cls-1" x1="33.57" y1="104.04" x2="79.58" y2="104.04"/><line class="cls-1" x1="33.57" y1="133.46" x2="79.58" y2="133.46"/><line class="cls-1" x1="33.57" y1="161.84" x2="79.58" y2="161.84"/><line class="cls-1" x1="101.71" y1="133.46" x2="154.46" y2="133.46"/><line class="cls-1" x1="101.71" y1="161.84" x2="154.46" y2="161.84"/><line class="cls-1" x1="33.57" y1="192.3" x2="155.48" y2="192.3"/><path class="cls-2" d="M243.3-112.46" transform="translate(-32.62 -9.91)"/><path class="cls-3" d="M150.23,126.68H139c-7,0-10.4,3.59-10.4,9.84v6.25c0,2.66-1.14,3.93-4.57,3.93s-4.57-1.27-4.57-3.93V134.9c0-10.42,6.74-17.48,17.82-17.48h11.09c7,0,10.28-3.7,10.28-10.07V91.27c0-6.25-3.31-10-10.28-10H104.87c-7,0-10.28,3.71-10.28,10v5.44c0,2.77-1.26,4.05-4.69,4.05s-4.68-1.28-4.68-4.05v-7.3C85.22,79,92,71.94,103,71.94h46.51c11.65,0,18.51,7.29,18.51,18.17V108.4C168.06,119.51,160.75,126.68,150.23,126.68Zm-26,50.88c-3.66,0-4.8-1.39-4.8-4.17v-8.21c0-2.78,1.14-4.29,4.8-4.29s4.8,1.51,4.8,4.29v8.21C129,176.17,127.72,177.56,124.18,177.56Z" transform="translate(-32.62 -9.91)"/></svg>