<svg id="レイヤー_1" data-name="レイヤー 1" xmlns="http://www.w3.org/2000/svg" viewBox="0 0 135.72 162.32"><defs><style>.cls-1,.cls-2,.cls-4{fill:none;stroke-linejoin:round;}.cls-1,.cls-2,.cls-3,.cls-4{stroke:#9fa0a0;}.cls-1{stroke-width:13px;}.cls-2,.cls-4{stroke-linecap:round;}.cls-2{stroke-width:25px;}.cls-3{fill:#b5b5b6;stroke-miterlimit:10;stroke-width:6px;}.cls-4{stroke-width:14px;}</style></defs><ellipse class="cls-1" cx="66.82" cy="72.35" rx="60.32" ry="65.85"/><line class="cls-2" x1="98.96" y1="117.38" x2="123.22" y2="149.82"/><path class="cls-3" d="M95.75,81.74H90.26c-3.42,0-5.1,1.76-5.1,4.83v3.06c0,1.31-.56,1.93-2.24,1.93s-2.24-.62-2.24-1.93V85.77c0-5.11,3.31-8.57,8.74-8.57h5.44c3.42,0,5-1.82,5-4.94V64.37c0-3.06-1.62-4.88-5-4.88H73.51c-3.42,0-5.05,1.82-5.05,4.88V67c0,1.36-.61,2-2.29,2s-2.3-.63-2.3-2V63.46c0-5.1,3.3-8.57,8.74-8.57H95.42c5.71,0,9.08,3.58,9.08,8.92v9C104.5,78.22,100.91,81.74,95.75,81.74ZM83,106.69c-1.8,0-2.36-.68-2.36-2v-4c0-1.36.56-2.1,2.36-2.1s2.35.74,2.35,2.1v4C85.33,106,84.72,106.69,83,106.69Z" transform="translate(-15.56 -1.26)"/><path class="cls-4" d="M63.87,31.76C50.73,36.27,44.4,50.2,44.4,50.2" transform="translate(-15.56 -1.26)"/></svg>