<svg id="レイヤー_1" data-name="レイヤー 1" xmlns="http://www.w3.org/2000/svg" viewBox="0 0 227.97 247.86"><defs><style>.cls-1,.cls-2{fill:#fff;stroke:#b5b5b6;stroke-linejoin:round;stroke-width:9px;}.cls-2{stroke-linecap:round;}</style></defs><path class="cls-1" d="M180,148.4h0a61,61,0,1,0-109.32,1.5c11.66,25.85,27.54,60.69,27.54,60.69H152.6a558.57,558.57,0,0,1,25.64-58.75c.62-1.11,1.21-2.23,1.76-3.37Z" transform="translate(-11.02 -1.07)"/><line class="cls-2" x1="86.35" y1="221.16" x2="141.97" y2="221.16"/><line class="cls-2" x1="91.74" y1="231.98" x2="136.58" y2="231.98"/><line class="cls-2" x1="97.05" y1="243.36" x2="130.91" y2="243.36"/><line class="cls-2" x1="113.98" y1="29.37" x2="113.98" y2="4.5"/><line class="cls-2" x1="47.14" y1="51.97" x2="28.49" y2="34.39"/><line class="cls-2" x1="200.35" y1="209.51" x2="181" y2="191.93"/><line class="cls-2" x1="4.5" y1="127.43" x2="29.37" y2="127.43"/><line class="cls-2" x1="176.56" y1="51.97" x2="195.21" y2="34.39"/><line class="cls-2" x1="30.38" y1="209.51" x2="49.74" y2="191.93"/><line class="cls-2" x1="223.47" y1="130.01" x2="198.6" y2="130.19"/><path class="cls-2" d="M147.6,53" transform="translate(-11.02 -1.07)"/><path class="cls-2" d="M117.72,189V143c0-26.8-24.56-24.57-24.56-24.57s-6.61,20.1,33.23,19.47M135.05,189V143c0-26.8,24.57-24.57,24.57-24.57s6.6,20.1-33.23,19.47" transform="translate(-11.02 -1.07)"/></svg>