<svg id="レイヤー_1" data-name="レイヤー 1" xmlns="http://www.w3.org/2000/svg" viewBox="0 0 228.96 250.01"><defs><style>.cls-1{fill:#fff;stroke-linejoin:round;stroke-width:15px;}.cls-1,.cls-2{stroke:#b5b5b6;}.cls-2{fill:#b5b5b6;stroke-miterlimit:10;stroke-width:6px;}</style></defs><path class="cls-1" d="M125,7.5A107,107,0,0,0,46.39,187h0V242.5l47.7-25.58h0A107,107,0,1,0,125,7.5Z" transform="translate(-10.52 0)"/><path class="cls-2" d="M150.9,118.39H138.61c-7.65,0-11.42,3.94-11.42,10.8v6.86c0,2.92-1.25,4.32-5,4.32s-5-1.4-5-4.32v-8.64c0-11.43,7.4-19.18,19.57-19.18h12.16c7.65,0,11.29-4.06,11.29-11V79.52c0-6.85-3.64-10.92-11.29-10.92H101.11c-7.65,0-11.29,4.07-11.29,10.92v6c0,3.05-1.38,4.45-5.14,4.45s-5.14-1.4-5.14-4.45v-8c0-11.43,7.4-19.18,19.56-19.18h51c12.8,0,20.32,8,20.32,19.94V98.32C170.46,110.52,162.44,118.39,150.9,118.39Zm-28.6,55.84c-4,0-5.26-1.52-5.26-4.57v-9c0-3,1.25-4.7,5.26-4.7s5.27,1.65,5.27,4.7v9C127.57,172.71,126.19,174.23,122.3,174.23Z" transform="translate(-10.52 0)"/></svg>