<?xml version="1.0" encoding="UTF-8"?><svg xmlns="http://www.w3.org/2000/svg" xmlns:xlink="http://www.w3.org/1999/xlink" viewBox="0 0 3796.43 1489.24"><defs><style>.g{fill:#5a7cbc;}.h{fill:url(#f);}.i{fill:url(#d);}.j{fill:url(#e);}.k{fill:#2e295a;}</style><linearGradient id="d" x1="151.65" y1="986.69" x2="691.27" y2="586.15" gradientTransform="translate(-43.55 -24.17) rotate(.97) scale(1.03 .99)" gradientUnits="userSpaceOnUse"><stop offset="0" stop-color="#35a7e0"/><stop offset=".25" stop-color="#38a8de"/><stop offset=".45" stop-color="#41acda"/><stop offset=".62" stop-color="#52b3d3"/><stop offset=".78" stop-color="#69bcca"/><stop offset=".93" stop-color="#86c8be"/><stop offset="1" stop-color="#96cfb8"/></linearGradient><linearGradient id="e" x1="179.97" y1="1018.9" x2="811.57" y2="521.49" gradientTransform="translate(-43.55 -24.17) rotate(.97) scale(1.03 .99)" gradientUnits="userSpaceOnUse"><stop offset="0" stop-color="#1a96d4"/><stop offset=".23" stop-color="#1d98d2"/><stop offset=".44" stop-color="#299ecc"/><stop offset=".66" stop-color="#3da8c2"/><stop offset=".88" stop-color="#58b6b4"/><stop offset="1" stop-color="#6cc1ab"/></linearGradient><linearGradient id="f" x1="419.41" y1="868.26" x2="956.53" y2="481.49" gradientTransform="translate(-43.55 -24.17) rotate(.97) scale(1.03 .99)" gradientUnits="userSpaceOnUse"><stop offset="0" stop-color="#009fe8"/><stop offset=".13" stop-color="#0d9fd5"/><stop offset=".35" stop-color="#1fa1bd"/><stop offset=".55" stop-color="#2aa1ae"/><stop offset=".71" stop-color="#2ea2aa"/></linearGradient></defs><g id="a"/><g id="b"><g id="c"><g><polygon class="i" points="261.98 109.96 177.05 64.06 81.79 1151.06 775.85 1329.73 166.83 1112.17 261.98 109.96"/><polygon class="j" points="387.46 58 300.81 12 205.93 1094.28 824.29 1330.55 293.03 1054.44 387.46 58"/><path class="h" d="M419.29,0l-90.96,1038.29,541.28,293.02,96.03-1035L419.29,0Zm393.1,1135.5l-384.4-208.09,5.58-80.38,50.69,27.24,15.78-5.2,51.17-559.94-9.57-19.87-54.37-29.75,3.64-39.84,197.09,106.59-3.27,40.46-62.15-28.85-11.78-.46-52.38,573.12,226.31,126.92,8.21-7.07,1.72-14.95,27.27,13.21-9.54,106.86Z"/></g><polygon class="k" points="1425.5 1054.04 1411.66 1073.48 1146.85 1073.48 1146.85 733.38 1308.9 733.38 1322.73 751.59 1332.62 839.05 1379.06 839.05 1379.06 571.82 1332.62 571.82 1322.73 660.49 1308.9 677.49 1146.85 677.49 1146.85 370.19 1375.1 370.19 1388.94 388.42 1402.77 491.66 1458.11 491.66 1458.11 314.32 984.79 314.32 984.79 362.91 1041.11 370.19 1057.92 387.2 1057.92 1056.46 1041.11 1073.48 984.79 1079.54 984.79 1129.34 1493.68 1129.34 1493.68 931.35 1442.3 931.35 1425.5 1054.04"/><path class="k" d="M1867.19,304.6h-65.22l-231.22,760.36-57.31,14.58v49.81h193.68v-49.81l-64.23-6.06-9.88-17.01,70.16-231.99h233.2l71.15,231.99-6.92,17.01-61.26,6.06v49.81h224.31v-49.81l-59.29-14.58-237.15-760.36Zm-147.23,463.99l97.83-336.46,101.78,336.46h-199.6Z"/><path class="k" d="M2706.59,1064.96c-18.13-11.32-32.46-34.41-42.98-69.23-3.95-12.15-10.05-39.88-18.28-83.2-8.24-43.32-17.63-75.5-28.16-96.57-19.12-38.05-53.04-65.16-101.78-81.38,106.72-29.15,160.08-96.35,160.08-201.63,0-74.48-19.61-129.54-58.79-165.18-39.2-35.63-98.98-53.45-179.35-53.45h-251.97v48.59l56.32,7.28,16.8,17.01v669.26l-16.8,17.01-56.32,6.06v49.81h235.18v-49.81l-56.32-6.06-16.8-17.01v-289.09c23.72-1.6,40.17-2.42,49.41-2.42,44.79,0,78.56,9.53,101.28,28.55,22.73,19.02,40.67,53.25,53.85,102.64,3.29,12.96,7.57,31.78,12.85,56.47,5.26,24.72,9.71,44.34,13.34,58.92,3.61,14.58,9.39,30.56,17.29,47.97,7.91,17.42,17.45,32.19,28.65,44.33,21.74,23.5,55,35.23,99.8,35.23,21.74,0,47.43-3.64,77.08-10.94v-46.15h-8.9c-38.88,0-67.36-5.65-85.47-17.01Zm-304.84-354.68c-15.81,0-33.93-.4-54.35-1.2V370.19h47.43c62.57,0,108.53,13.37,137.84,40.09,29.31,26.72,43.97,70.87,43.97,132.39s-14.17,101.84-42.49,128.15c-28.33,26.32-72.47,39.47-132.41,39.47Z"/><polygon class="k" points="3262.4 372.62 3321.69 383.56 3339.48 405.42 3339.48 976.3 3002.53 354.41 3002.53 324.04 2816.76 324.04 2816.76 372.62 2880 379.91 2897.78 396.92 2897.78 1056.46 2880 1079.54 2819.72 1089.26 2819.72 1139.06 3028.22 1139.06 3028.22 1089.26 2968.93 1079.54 2951.15 1056.46 2951.15 449.15 3327.62 1139.06 3392.84 1139.06 3392.84 405.42 3410.62 383.56 3469.91 372.62 3469.91 324.04 3262.4 324.04 3262.4 372.62"/><g><path class="g" d="M1064.9,1196.89h-9.37c-.07-4.91-1.46-8.64-4.15-11.19-2.69-2.54-6.59-3.82-11.68-3.82-6.68,0-11.36,1.85-14.05,5.54-2.69,3.7-4.04,10.29-4.04,19.77v13.44h28.75v10.5h-28.75v83.41h22.83v10.4h-57.71v-10.4h17.01v-83.41h-17.01v-10.5h17.01v-13.05c0-11.65,3-20.44,8.99-26.39,5.99-5.96,14.77-8.93,26.33-8.93,4.31,0,8.63,.39,12.98,1.18,4.34,.79,8.63,2,12.87,3.63v19.83Z"/><path class="g" d="M1164.34,1220.44v26.1h-10.23c-.36-5.16-1.79-9.03-4.31-11.57-2.51-2.56-6.17-3.83-10.98-3.83-8.83,0-15.58,3.07-20.24,9.22-4.67,6.15-7,14.98-7,26.5v47.69h20.57v10.4h-54.48v-10.4h16.04v-83.61h-17.01v-10.31h34.88v18.55c3.45-7.26,7.91-12.64,13.41-16.14,5.49-3.5,12.19-5.25,20.08-5.25,2.87,0,5.92,.23,9.15,.69,3.23,.45,6.61,1.11,10.12,1.96Z"/><path class="g" d="M1240.53,1327.79c-14.93,0-26.96-5.01-36.07-15.06-9.12-10.04-13.68-23.38-13.68-39.99s4.54-29.93,13.62-39.94c9.08-10,21.12-15.01,36.12-15.01s27.15,5.01,36.23,15.01c9.08,10.02,13.62,23.33,13.62,39.94s-4.54,29.95-13.62,39.99c-9.08,10.04-21.16,15.06-36.23,15.06Zm0-9.71c9.62,0,16.87-3.82,21.75-11.48,4.88-7.65,7.32-18.94,7.32-33.85s-2.44-26.18-7.32-33.8c-4.88-7.62-12.13-11.43-21.75-11.43s-16.76,3.81-21.64,11.43c-4.88,7.62-7.32,18.89-7.32,33.8s2.46,26.2,7.37,33.85c4.92,7.66,12.11,11.48,21.59,11.48Z"/><path class="g" d="M1419.65,1240.95c3.44-7.65,7.82-13.43,13.14-17.32,5.31-3.89,11.52-5.84,18.63-5.84,10.77,0,18.8,3.38,24.12,10.16,5.31,6.77,7.97,16.99,7.97,30.66v55.93h16.04v10.4h-49.42v-10.4h15.5v-53.88c0-10.66-1.55-18.25-4.63-22.77-3.09-4.51-8.22-6.77-15.4-6.77-7.97,0-14.03,3.05-18.19,9.12-4.17,6.09-6.25,14.95-6.25,26.6v47.69h15.5v10.4h-48.77v-10.4h15.5v-54.56c0-10.4-1.56-17.81-4.68-22.22-3.12-4.42-8.27-6.63-15.45-6.63-7.9,0-13.93,3.05-18.09,9.12-4.16,6.09-6.25,14.95-6.25,26.6v47.69h15.51v10.4h-49.42v-10.4h16.04v-83.61h-17.01v-10.31h34.88v18.55c3.23-6.94,7.41-12.24,12.54-15.9,5.13-3.66,10.93-5.5,17.39-5.5,7.97,0,14.65,2.01,20.03,6.04,5.38,4.02,8.97,9.73,10.77,17.12Z"/><path class="g" d="M1708.56,1274.7h-76.88v.79c0,14.06,2.62,24.68,7.86,31.84,5.24,7.17,12.95,10.75,23.15,10.75,7.82,0,14.25-2.08,19.27-6.23,5.02-4.16,8.54-10.32,10.55-18.5h14.32c-2.87,11.45-8.13,20.05-15.77,25.8-7.65,5.76-17.72,8.64-30.2,8.64-15.08,0-27.17-5.01-36.29-15.06-9.12-10.04-13.67-23.38-13.67-39.99s4.48-29.76,13.45-39.84c8.97-10.08,20.75-15.11,35.32-15.11,15.57,0,27.52,4.86,35.85,14.57,8.32,9.72,12.67,23.83,13.03,42.34Zm-20.99-10.4c-.43-12.17-2.98-21.34-7.65-27.52-4.67-6.19-11.42-9.27-20.24-9.27-8.18,0-14.62,3.11-19.33,9.32-4.7,6.21-7.59,15.38-8.67,27.48h55.89Z"/><path class="g" d="M1784,1324.95l-37.79-93.81h-11.74v-10.5h47.38v10.5h-16.48l28.97,71.74,28.97-71.74h-15.4v-10.5h38.65v10.5h-11.52l-37.9,93.81h-13.14Z"/><path class="g" d="M1971.08,1274.7h-76.88v.79c0,14.06,2.62,24.68,7.86,31.84,5.24,7.17,12.95,10.75,23.15,10.75,7.82,0,14.25-2.08,19.27-6.23,5.02-4.16,8.54-10.32,10.55-18.5h14.32c-2.87,11.45-8.13,20.05-15.77,25.8-7.65,5.76-17.72,8.64-30.2,8.64-15.08,0-27.17-5.01-36.29-15.06-9.12-10.04-13.67-23.38-13.67-39.99s4.48-29.76,13.45-39.84c8.97-10.08,20.75-15.11,35.32-15.11,15.57,0,27.52,4.86,35.85,14.57,8.32,9.72,12.67,23.83,13.03,42.34Zm-20.99-10.4c-.43-12.17-2.98-21.34-7.65-27.52-4.67-6.19-11.42-9.27-20.24-9.27-8.18,0-14.62,3.11-19.33,9.32-4.7,6.21-7.59,15.38-8.67,27.48h55.89Z"/><path class="g" d="M2092.28,1220.44v26.1h-10.23c-.36-5.16-1.79-9.03-4.3-11.57-2.52-2.56-6.18-3.83-10.98-3.83-8.83,0-15.58,3.07-20.24,9.22-4.67,6.15-7,14.98-7,26.5v47.69h20.57v10.4h-54.49v-10.4h16.05v-83.61h-17.01v-10.31h34.89v18.55c3.44-7.26,7.91-12.64,13.41-16.14,5.49-3.5,12.18-5.25,20.08-5.25,2.87,0,5.92,.23,9.15,.69,3.23,.45,6.61,1.11,10.12,1.96Z"/><path class="g" d="M2151.78,1344.08l6.78-17.37-38.43-95.58h-11.74v-10.5h47.38v10.5h-16.48l28.97,71.74,28.97-71.74h-15.4v-10.5h38.65v10.5h-11.52l-47.26,117.36c-3.16,8.11-6.71,13.66-10.66,16.63-3.95,2.98-9.52,4.47-16.69,4.47-3.02,0-6.14-.26-9.37-.79-3.23-.53-6.46-1.28-9.68-2.26v-19.92h9.15c.36,4.45,1.47,7.64,3.34,9.57,1.87,1.93,4.74,2.9,8.62,2.9,3.51,0,6.35-.99,8.51-2.99,2.15-2,4.45-6,6.89-12.02Z"/><path class="g" d="M2297.09,1327.79c-14.93,0-26.96-5.01-36.07-15.06-9.12-10.04-13.67-23.38-13.67-39.99s4.53-29.93,13.62-39.94c9.08-10,21.12-15.01,36.13-15.01s27.15,5.01,36.23,15.01c9.08,10.02,13.62,23.33,13.62,39.94s-4.54,29.95-13.62,39.99c-9.08,10.04-21.16,15.06-36.23,15.06Zm0-9.71c9.62,0,16.86-3.82,21.75-11.48,4.88-7.65,7.32-18.94,7.32-33.85s-2.44-26.18-7.32-33.8c-4.89-7.62-12.13-11.43-21.75-11.43s-16.76,3.81-21.64,11.43c-4.88,7.62-7.32,18.89-7.32,33.8s2.46,26.2,7.38,33.85c4.92,7.66,12.11,11.48,21.59,11.48Z"/><path class="g" d="M2381.57,1324.95v-10.4h16.05v-83.41h-17.01v-10.5h34.89v18.55c3.23-7.07,7.48-12.4,12.76-15.99,5.28-3.6,11.4-5.4,18.36-5.4,11.41,0,19.79,3.3,25.14,9.91,5.35,6.61,8.02,16.91,8.02,30.91v55.93h15.94v10.4h-49.21v-10.4h15.4v-50.24c0-12.76-1.56-21.51-4.68-26.25-3.13-4.74-8.59-7.11-16.42-7.11-8.26,0-14.54,3.06-18.85,9.18-4.3,6.12-6.46,15.03-6.46,26.74v47.69h15.5v10.4h-49.42Z"/><path class="g" d="M2625.29,1274.7h-76.88v.79c0,14.06,2.62,24.68,7.86,31.84,5.24,7.17,12.95,10.75,23.15,10.75,7.82,0,14.25-2.08,19.27-6.23,5.02-4.16,8.54-10.32,10.55-18.5h14.32c-2.87,11.45-8.13,20.05-15.77,25.8-7.65,5.76-17.72,8.64-30.2,8.64-15.08,0-27.17-5.01-36.29-15.06-9.12-10.04-13.67-23.38-13.67-39.99s4.48-29.76,13.45-39.84c8.97-10.08,20.75-15.11,35.32-15.11,15.57,0,27.52,4.86,35.85,14.57,8.32,9.72,12.67,23.83,13.03,42.34Zm-20.99-10.4c-.43-12.17-2.98-21.34-7.65-27.52-4.67-6.19-11.42-9.27-20.24-9.27-8.18,0-14.62,3.11-19.33,9.32-4.7,6.21-7.59,15.38-8.67,27.48h55.89Z"/></g><path class="k" d="M3477.41,1139.06v-34.63c67.63-7.42,75.14-13.6,75.14-97.71v-254.78c0-76.67-3.21-81.62-67.63-93.99v-29.68c55.82-11.13,106.28-27.22,152.43-49.48v427.92c0,84.1,7.51,90.29,77.28,97.71v34.63h-237.23Zm111.63-681.45c-30.05,0-56.88-30.92-56.88-65.55,0-39.58,26.83-68.03,57.96-68.03s54.74,28.45,54.74,68.03c0,34.63-24.69,65.55-55.82,65.55Z"/><rect class="k" y="1481.92" width="2779.85" height="7.32" transform="translate(2779.85 2971.16) rotate(180)"/><rect class="k" x="2082.05" y="60.4" width="1714.37" height="7.32" transform="translate(5878.48 128.12) rotate(180)"/></g></g></svg>