<?xml version="1.0" encoding="utf-8"?>
<!-- Generator: Adobe Illustrator 26.2.1, SVG Export Plug-In . SVG Version: 6.00 Build 0)  -->
<svg version="1.1" id="レイヤー_1" xmlns="http://www.w3.org/2000/svg" xmlns:xlink="http://www.w3.org/1999/xlink" x="0px"
	 y="0px" viewBox="0 0 1920 1080" style="enable-background:new 0 0 1920 1080;" xml:space="preserve">
<style type="text/css">
	.st0{fill:#54BFDC;}
	.st1{fill:#2E295A;}
	.st2{fill:url(#SVGID_1_);}
	.st3{fill:url(#SVGID_00000140733832141995544450000014006344285259961261_);}
	.st4{fill:url(#SVGID_00000178906731231531880650000006461871190037016963_);}
	.st5{fill:#5A7CBC;}
	.st6{fill:#FFFFFF;stroke:#231815;stroke-width:0.25;stroke-miterlimit:10;}
</style>
<g>
	<path class="st0" d="M518.1,781.6"/>
	<path class="st1" d="M840.1,321"/>
	<g>
		
			<linearGradient id="SVGID_1_" gradientUnits="userSpaceOnUse" x1="167.1649" y1="637.6573" x2="420.6993" y2="449.4684" gradientTransform="matrix(1.0328 1.740759e-02 -1.674180e-02 0.9933 -16.2937 -9.2551)">
			<stop  offset="0" style="stop-color:#35A7E0"/>
			<stop  offset="0.2521" style="stop-color:#38A8DF"/>
			<stop  offset="0.4454" style="stop-color:#42ACDB"/>
			<stop  offset="0.6191" style="stop-color:#52B3D4"/>
			<stop  offset="0.7814" style="stop-color:#69BDCA"/>
			<stop  offset="0.9342" style="stop-color:#87C9BE"/>
			<stop  offset="1" style="stop-color:#96CFB8"/>
		</linearGradient>
		<polygon class="st2" points="223.4,228.3 183.5,206.8 138.7,717.5 464.8,801.4 178.7,699.2 		"/>
		
			<linearGradient id="SVGID_00000157280671656918604160000002654816123442461322_" gradientUnits="userSpaceOnUse" x1="180.4708" y1="652.7949" x2="477.2185" y2="419.0924" gradientTransform="matrix(1.0328 1.740759e-02 -1.674180e-02 0.9933 -16.2937 -9.2551)">
			<stop  offset="4.208954e-07" style="stop-color:#1A96D4"/>
			<stop  offset="0.2253" style="stop-color:#1E98D2"/>
			<stop  offset="0.4445" style="stop-color:#2A9ECC"/>
			<stop  offset="0.6612" style="stop-color:#3DA8C2"/>
			<stop  offset="0.8751" style="stop-color:#58B7B5"/>
			<stop  offset="1" style="stop-color:#6CC1AB"/>
		</linearGradient>
		<polygon style="fill:url(#SVGID_00000157280671656918604160000002654816123442461322_);" points="282.4,203.9 241.6,182.3 
			197.1,690.8 487.6,801.8 238,672.1 		"/>
		<g>
			
				<linearGradient id="SVGID_00000160880381209487238960000017971212956531827870_" gradientUnits="userSpaceOnUse" x1="292.9693" y1="582.0161" x2="545.3245" y2="400.2952" gradientTransform="matrix(1.0328 1.740759e-02 -1.674180e-02 0.9933 -16.2937 -9.2551)">
				<stop  offset="2.770450e-07" style="stop-color:#009FE8"/>
				<stop  offset="0.1328" style="stop-color:#0EA0D5"/>
				<stop  offset="0.3468" style="stop-color:#20A1BD"/>
				<stop  offset="0.5455" style="stop-color:#2AA2AF"/>
				<stop  offset="0.7124" style="stop-color:#2EA2AA"/>
			</linearGradient>
			<path style="fill:url(#SVGID_00000160880381209487238960000017971212956531827870_);" d="M297.3,176.7l-42.7,487.8l254.3,137.7
				L554,315.9L297.3,176.7z M482,710.2l-180.6-97.8l2.6-37.8l23.8,12.8l7.4-2.4l24-263.1l-4.5-9.3l-25.5-14l1.7-18.7l92.6,50.1
				l-1.5,19l-29.2-13.6l-5.5-0.2l-24.6,269.3L469,664.1l3.9-3.3l0.8-7l12.8,6.2L482,710.2z"/>
		</g>
	</g>
	<polygon class="st1" points="770.1,671.9 763.6,681 639.1,681 639.1,521.2 715.3,521.2 721.8,529.8 726.4,570.9 748.2,570.9 
		748.2,445.3 726.4,445.3 721.8,487 715.3,495 639.1,495 639.1,350.6 746.4,350.6 752.9,359.2 759.4,407.7 785.4,407.7 785.4,324.4 
		563,324.4 563,347.2 589.5,350.6 597.4,358.6 597.4,673 589.5,681 563,683.9 563,707.3 802.1,707.3 802.1,614.3 778,614.3 	"/>
	<path class="st1" d="M977.6,319.8h-30.6L838.3,677l-26.9,6.8v23.4h91v-23.4l-30.2-2.8l-4.6-8l33-109h109.6l33.4,109l-3.3,8
		l-28.8,2.8v23.4h105.4v-23.4L1089,677L977.6,319.8z M908.4,537.8l46-158.1l47.8,158.1H908.4z"/>
	<path class="st1" d="M1372,677c-8.5-5.3-15.2-16.2-20.2-32.5c-1.9-5.7-4.7-18.7-8.6-39.1c-3.9-20.4-8.3-35.5-13.2-45.4
		c-9-17.9-24.9-30.6-47.8-38.2c50.1-13.7,75.2-45.3,75.2-94.7c0-35-9.2-60.9-27.6-77.6c-18.4-16.7-46.5-25.1-84.3-25.1h-118.4v22.8
		l26.5,3.4l7.9,8V673l-7.9,8l-26.5,2.8v23.4h110.5v-23.4l-26.5-2.8l-7.9-8V537.2c11.1-0.8,18.9-1.1,23.2-1.1
		c21,0,36.9,4.5,47.6,13.4c10.7,8.9,19.1,25,25.3,48.2c1.5,6.1,3.6,14.9,6,26.5c2.5,11.6,4.6,20.8,6.3,27.7
		c1.7,6.8,4.4,14.4,8.1,22.5c3.7,8.2,8.2,15.1,13.5,20.8c10.2,11,25.8,16.6,46.9,16.6c10.2,0,22.3-1.7,36.2-5.1V685h-4.2
		C1393.9,685,1380.5,682.4,1372,677z M1228.7,510.4c-7.4,0-15.9-0.2-25.5-0.6V350.6h22.3c29.4,0,51,6.3,64.8,18.8
		c13.8,12.6,20.7,33.3,20.7,62.2c0,27.8-6.7,47.8-20,60.2C1277.6,504.2,1256.9,510.4,1228.7,510.4z"/>
	<polygon class="st1" points="1633.1,351.8 1661,356.9 1669.3,367.2 1669.3,635.4 1511,343.2 1511,328.9 1423.7,328.9 1423.7,351.8 
		1453.4,355.2 1461.8,363.2 1461.8,673 1453.4,683.9 1425.1,688.5 1425.1,711.9 1523.1,711.9 1523.1,688.5 1495.2,683.9 1486.9,673 
		1486.9,387.7 1663.8,711.9 1694.4,711.9 1694.4,367.2 1702.8,356.9 1730.6,351.8 1730.6,328.9 1633.1,328.9 	"/>
	<g>
		<path class="st5" d="M600.6,739h-4.4c0-2.3-0.7-4.1-1.9-5.3c-1.3-1.2-3.1-1.8-5.5-1.8c-3.1,0-5.3,0.9-6.6,2.6
			c-1.3,1.7-1.9,4.8-1.9,9.3v6.3h13.5v4.9h-13.5v39.2H591v4.9h-27.1v-4.9h8v-39.2h-8v-4.9h8V744c0-5.5,1.4-9.6,4.2-12.4
			c2.8-2.8,6.9-4.2,12.4-4.2c2,0,4.1,0.2,6.1,0.6c2,0.4,4.1,0.9,6,1.7V739z"/>
		<path class="st5" d="M647.4,750.1v12.3h-4.8c-0.2-2.4-0.8-4.2-2-5.4c-1.2-1.2-2.9-1.8-5.2-1.8c-4.1,0-7.3,1.4-9.5,4.3
			c-2.2,2.9-3.3,7-3.3,12.4v22.4h9.7v4.9h-25.6v-4.9h7.5V755h-8v-4.8h16.4v8.7c1.6-3.4,3.7-5.9,6.3-7.6c2.6-1.6,5.7-2.5,9.4-2.5
			c1.3,0,2.8,0.1,4.3,0.3C644.1,749.4,645.7,749.7,647.4,750.1z"/>
		<path class="st5" d="M683.2,800.5c-7,0-12.7-2.4-16.9-7.1c-4.3-4.7-6.4-11-6.4-18.8c0-7.8,2.1-14.1,6.4-18.8
			c4.3-4.7,9.9-7.1,17-7.1c7.1,0,12.8,2.4,17,7.1c4.3,4.7,6.4,11,6.4,18.8c0,7.8-2.1,14.1-6.4,18.8
			C695.9,798.2,690.2,800.5,683.2,800.5z M683.2,796c4.5,0,7.9-1.8,10.2-5.4c2.3-3.6,3.4-8.9,3.4-15.9c0-7-1.1-12.3-3.4-15.9
			c-2.3-3.6-5.7-5.4-10.2-5.4c-4.5,0-7.9,1.8-10.2,5.4c-2.3,3.6-3.4,8.9-3.4,15.9c0,7,1.2,12.3,3.5,15.9
			C675.3,794.2,678.7,796,683.2,796z"/>
		<path class="st5" d="M767.3,759.7c1.6-3.6,3.7-6.3,6.2-8.1c2.5-1.8,5.4-2.7,8.8-2.7c5.1,0,8.8,1.6,11.3,4.8
			c2.5,3.2,3.7,8,3.7,14.4v26.3h7.5v4.9h-23.2v-4.9h7.3V769c0-5-0.7-8.6-2.2-10.7c-1.5-2.1-3.9-3.2-7.2-3.2c-3.7,0-6.6,1.4-8.5,4.3
			c-2,2.9-2.9,7-2.9,12.5v22.4h7.3v4.9h-22.9v-4.9h7.3v-25.6c0-4.9-0.7-8.4-2.2-10.4c-1.5-2.1-3.9-3.1-7.3-3.1
			c-3.7,0-6.5,1.4-8.5,4.3c-2,2.9-2.9,7-2.9,12.5v22.4h7.3v4.9h-23.2v-4.9h7.5V755h-8v-4.8h16.4v8.7c1.5-3.3,3.5-5.7,5.9-7.5
			c2.4-1.7,5.1-2.6,8.2-2.6c3.7,0,6.9,0.9,9.4,2.8C764.8,753.6,766.5,756.2,767.3,759.7z"/>
		<path class="st5" d="M903.1,775.6h-36.1v0.4c0,6.6,1.2,11.6,3.7,15c2.5,3.4,6.1,5,10.9,5c3.7,0,6.7-1,9.1-2.9c2.4-2,4-4.8,5-8.7
			h6.7c-1.3,5.4-3.8,9.4-7.4,12.1c-3.6,2.7-8.3,4.1-14.2,4.1c-7.1,0-12.8-2.4-17-7.1c-4.3-4.7-6.4-11-6.4-18.8
			c0-7.7,2.1-14,6.3-18.7c4.2-4.7,9.7-7.1,16.6-7.1c7.3,0,12.9,2.3,16.8,6.8C900.8,760.3,902.9,766.9,903.1,775.6z M893.2,770.7
			c-0.2-5.7-1.4-10-3.6-12.9c-2.2-2.9-5.4-4.4-9.5-4.4c-3.8,0-6.9,1.5-9.1,4.4c-2.2,2.9-3.6,7.2-4.1,12.9H893.2z"/>
		<path class="st5" d="M938.5,799.2l-17.8-44.1h-5.5v-4.9h22.3v4.9h-7.7l13.6,33.7l13.6-33.7h-7.2v-4.9h18.2v4.9h-5.4l-17.8,44.1
			H938.5z"/>
		<path class="st5" d="M1026.4,775.6h-36.1v0.4c0,6.6,1.2,11.6,3.7,15c2.5,3.4,6.1,5,10.9,5c3.7,0,6.7-1,9.1-2.9c2.4-2,4-4.8,5-8.7
			h6.7c-1.3,5.4-3.8,9.4-7.4,12.1c-3.6,2.7-8.3,4.1-14.2,4.1c-7.1,0-12.8-2.4-17-7.1c-4.3-4.7-6.4-11-6.4-18.8
			c0-7.7,2.1-14,6.3-18.7c4.2-4.7,9.7-7.1,16.6-7.1c7.3,0,12.9,2.3,16.8,6.8C1024.2,760.3,1026.2,766.9,1026.4,775.6z M1016.5,770.7
			c-0.2-5.7-1.4-10-3.6-12.9c-2.2-2.9-5.4-4.4-9.5-4.4c-3.8,0-6.9,1.5-9.1,4.4c-2.2,2.9-3.6,7.2-4.1,12.9H1016.5z"/>
		<path class="st5" d="M1083.3,750.1v12.3h-4.8c-0.2-2.4-0.8-4.2-2-5.4c-1.2-1.2-2.9-1.8-5.2-1.8c-4.1,0-7.3,1.4-9.5,4.3
			c-2.2,2.9-3.3,7-3.3,12.4v22.4h9.7v4.9h-25.6v-4.9h7.5V755h-8v-4.8h16.4v8.7c1.6-3.4,3.7-5.9,6.3-7.6c2.6-1.6,5.7-2.5,9.4-2.5
			c1.3,0,2.8,0.1,4.3,0.3C1080.1,749.4,1081.7,749.7,1083.3,750.1z"/>
		<path class="st5" d="M1111.3,808.2l3.2-8.2l-18.1-44.9h-5.5v-4.9h22.3v4.9h-7.7l13.6,33.7l13.6-33.7h-7.2v-4.9h18.2v4.9h-5.4
			l-22.2,55.1c-1.5,3.8-3.2,6.4-5,7.8c-1.9,1.4-4.5,2.1-7.8,2.1c-1.4,0-2.9-0.1-4.4-0.4c-1.5-0.2-3-0.6-4.6-1.1v-9.4h4.3
			c0.2,2.1,0.7,3.6,1.6,4.5s2.2,1.4,4,1.4c1.7,0,3-0.5,4-1.4C1109.1,812.9,1110.2,811,1111.3,808.2z"/>
		<path class="st5" d="M1179.6,800.5c-7,0-12.7-2.4-16.9-7.1c-4.3-4.7-6.4-11-6.4-18.8c0-7.8,2.1-14.1,6.4-18.8
			c4.3-4.7,9.9-7.1,17-7.1c7.1,0,12.8,2.4,17,7.1c4.3,4.7,6.4,11,6.4,18.8c0,7.8-2.1,14.1-6.4,18.8
			C1192.3,798.2,1186.7,800.5,1179.6,800.5z M1179.6,796c4.5,0,7.9-1.8,10.2-5.4c2.3-3.6,3.4-8.9,3.4-15.9c0-7-1.1-12.3-3.4-15.9
			c-2.3-3.6-5.7-5.4-10.2-5.4c-4.5,0-7.9,1.8-10.2,5.4c-2.3,3.6-3.4,8.9-3.4,15.9c0,7,1.2,12.3,3.5,15.9
			C1171.7,794.2,1175.1,796,1179.6,796z"/>
		<path class="st5" d="M1219.3,799.2v-4.9h7.5v-39.2h-8v-4.9h16.4v8.7c1.5-3.3,3.5-5.8,6-7.5c2.5-1.7,5.4-2.5,8.6-2.5
			c5.4,0,9.3,1.6,11.8,4.7c2.5,3.1,3.8,7.9,3.8,14.5v26.3h7.5v4.9h-23.1v-4.9h7.2v-23.6c0-6-0.7-10.1-2.2-12.3
			c-1.5-2.2-4-3.3-7.7-3.3c-3.9,0-6.8,1.4-8.9,4.3c-2,2.9-3,7.1-3,12.6v22.4h7.3v4.9H1219.3z"/>
		<path class="st5" d="M1333.8,775.6h-36.1v0.4c0,6.6,1.2,11.6,3.7,15c2.5,3.4,6.1,5,10.9,5c3.7,0,6.7-1,9.1-2.9c2.4-2,4-4.8,5-8.7
			h6.7c-1.3,5.4-3.8,9.4-7.4,12.1c-3.6,2.7-8.3,4.1-14.2,4.1c-7.1,0-12.8-2.4-17-7.1c-4.3-4.7-6.4-11-6.4-18.8
			c0-7.7,2.1-14,6.3-18.7s9.7-7.1,16.6-7.1c7.3,0,12.9,2.3,16.8,6.8C1331.6,760.3,1333.6,766.9,1333.8,775.6z M1323.9,770.7
			c-0.2-5.7-1.4-10-3.6-12.9c-2.2-2.9-5.4-4.4-9.5-4.4c-3.8,0-6.9,1.5-9.1,4.4c-2.2,2.9-3.6,7.2-4.1,12.9H1323.9z"/>
	</g>
	<path class="st6" d="M471.5,684.7"/>
	<path class="st6" d="M474.9,653.4"/>
	<path class="st6" d="M576.2,375"/>
	<path class="st6" d="M192.1,443.7"/>
	<g>
		<g>
			<path class="st1" d="M1734.1,711.9v-16.3c31.8-3.5,35.3-6.4,35.3-45.9V530c0-36-1.5-38.3-31.8-44.2v-13.9
				c26.2-5.2,49.9-12.8,71.6-23.2c0,24.4,0,48.8,0,73.2v127.8c0,39.5,3.5,42.4,36.3,45.9v16.3H1734.1z M1786.6,391.7
				c-14.1,0-26.7-14.5-26.7-30.8c0-18.6,12.6-32,27.2-32c14.1,0,25.7,13.4,25.7,32C1812.8,377.2,1801.2,391.7,1786.6,391.7z"/>
		</g>
	</g>
</g>
<rect x="100.3" y="872.9" transform="matrix(-1 -1.224647e-16 1.224647e-16 -1 1506.7061 1749.3157)" class="st1" width="1306.1" height="3.4"/>
<path class="st1" d="M1098.9,929.1"/>
<path class="st6" d="M823.1,985.5"/>
<rect x="1078.5" y="205.1" transform="matrix(-1 -1.224647e-16 1.224647e-16 -1 2962.5559 413.552)" class="st1" width="805.5" height="3.4"/>
</svg>
