<?xml version="1.0" encoding="iso-8859-1"?>
<!-- Generator: Adobe Illustrator 24.3.0, SVG Export Plug-In . SVG Version: 6.00 Build 0)  -->
<svg version="1.1" id="&#x30EC;&#x30A4;&#x30E4;&#x30FC;_1"
	 xmlns="http://www.w3.org/2000/svg" xmlns:xlink="http://www.w3.org/1999/xlink" x="0px" y="0px" viewBox="0 0 165 165"
	 style="enable-background:new 0 0 165 165;" xml:space="preserve">
<g>
	<path style="fill:#1ED37C;" d="M82.889,0.162c-45.346,0-82.107,36.761-82.107,82.107s36.761,82.107,82.107,82.107
		s82.107-36.761,82.107-82.107S128.236,0.162,82.889,0.162z"/>
</g>
<path style="fill:#13AE67;stroke:#FFFFFF;stroke-width:6;stroke-linecap:round;stroke-linejoin:round;stroke-miterlimit:10;" d="
	M82.889,129.633h35.246c8.928,0,14.515-8.497,10.065-15.307l-28.194-43.15c-0.238-0.364-0.363-0.776-0.363-1.195V41.777
	c0-1.325,1.22-2.398,2.726-2.398h0c1.505,0,2.726-1.074,2.726-2.398v-6.159c0-3.268-3.011-5.917-6.725-5.917H82.889H67.698
	c-3.875,0-7.016,2.764-7.016,6.173v5.576c0,1.505,1.22,2.726,2.726,2.726h0c1.505,0,2.726,1.074,2.726,2.398v28.203
	c0,0.42-0.125,0.832-0.363,1.195l-28.194,43.15c-4.45,6.81,1.137,15.307,10.065,15.307H82.889"/>
<circle style="fill:#FFFFFF;" cx="80.085" cy="74.354" r="3.131"/>
<circle style="fill:#FFFFFF;" cx="90.697" cy="101.48" r="4.697"/>
<circle style="fill:#FFFFFF;" cx="66.525" cy="104.236" r="4.697"/>
<circle style="fill:#FFFFFF;" cx="75.976" cy="117.739" r="4.11"/>
<circle style="fill:#FFFFFF;" cx="90.697" cy="88.643" r="1.957"/>
<circle style="fill:#FFFFFF;" cx="104.101" cy="114.558" r="1.957"/>
</svg>
