<?xml version="1.0" encoding="UTF-8"?><svg xmlns="http://www.w3.org/2000/svg" xmlns:xlink="http://www.w3.org/1999/xlink" viewBox="0 0 415.27 625.5"><defs><style>.g{fill:url(#f);}.h{fill:url(#d);}.i{fill:url(#e);}</style><linearGradient id="d" x1="28.42" y1="460.98" x2="281.96" y2="272.79" gradientTransform="translate(-14.7 -8.03) rotate(.97) scale(1.03 .99)" gradientUnits="userSpaceOnUse"><stop offset="0" stop-color="#35a7e0"/><stop offset=".25" stop-color="#38a8de"/><stop offset=".45" stop-color="#41acda"/><stop offset=".62" stop-color="#52b3d3"/><stop offset=".78" stop-color="#69bcca"/><stop offset=".93" stop-color="#86c8be"/><stop offset="1" stop-color="#96cfb8"/></linearGradient><linearGradient id="e" x1="41.73" y1="476.12" x2="338.48" y2="242.41" gradientTransform="translate(-14.7 -8.03) rotate(.97) scale(1.03 .99)" gradientUnits="userSpaceOnUse"><stop offset="0" stop-color="#1a96d4"/><stop offset=".23" stop-color="#1d98d2"/><stop offset=".44" stop-color="#299ecc"/><stop offset=".66" stop-color="#3da8c2"/><stop offset=".88" stop-color="#58b6b4"/><stop offset="1" stop-color="#6cc1ab"/></linearGradient><linearGradient id="f" x1="154.23" y1="405.34" x2="406.58" y2="223.62" gradientTransform="translate(-14.7 -8.03) rotate(.97) scale(1.03 .99)" gradientUnits="userSpaceOnUse"><stop offset="0" stop-color="#009fe8"/><stop offset=".13" stop-color="#0d9fd5"/><stop offset=".35" stop-color="#1fa1bd"/><stop offset=".55" stop-color="#2aa1ae"/><stop offset=".71" stop-color="#2ea2aa"/></linearGradient></defs><g id="a"/><g id="b"><g id="c"><g><polygon class="h" points="84.66 51.66 44.76 30.1 0 540.81 326.09 624.76 39.95 522.54 84.66 51.66"/><polygon class="i" points="143.62 27.25 102.9 5.64 58.33 514.13 348.86 625.14 99.25 495.42 143.62 27.25"/><path class="g" d="M158.57,0l-42.73,487.83,254.31,137.67,45.12-486.28L158.57,0Zm184.69,533.5l-180.61-97.77,2.62-37.77,23.82,12.8,7.41-2.45,24.04-263.08-4.5-9.33-25.55-13.98,1.71-18.72,92.6,50.08-1.54,19.01-29.2-13.56-5.53-.22-24.61,269.27,106.33,59.63,3.86-3.32,.81-7.02,12.81,6.21-4.48,50.21Z"/></g></g></g></svg>