<?xml version="1.0" encoding="UTF-8"?><svg xmlns="http://www.w3.org/2000/svg" xmlns:xlink="http://www.w3.org/1999/xlink" viewBox="0 0 883.86 1331.31"><defs><style>.g{fill:url(#f);}.h{fill:url(#d);}.i{fill:url(#e);}</style><linearGradient id="d" x1="69.86" y1="986.69" x2="609.48" y2="586.15" gradientTransform="translate(-40.87 -22.75) rotate(.97) scale(1.03 .99)" gradientUnits="userSpaceOnUse"><stop offset="0" stop-color="#35a7e0"/><stop offset=".25" stop-color="#38a8de"/><stop offset=".45" stop-color="#41acda"/><stop offset=".62" stop-color="#52b3d3"/><stop offset=".78" stop-color="#69bcca"/><stop offset=".93" stop-color="#86c8be"/><stop offset="1" stop-color="#96cfb8"/></linearGradient><linearGradient id="e" x1="98.18" y1="1018.9" x2="729.78" y2="521.49" gradientTransform="translate(-40.87 -22.75) rotate(.97) scale(1.03 .99)" gradientUnits="userSpaceOnUse"><stop offset="0" stop-color="#1a96d4"/><stop offset=".23" stop-color="#1d98d2"/><stop offset=".44" stop-color="#299ecc"/><stop offset=".66" stop-color="#3da8c2"/><stop offset=".88" stop-color="#58b6b4"/><stop offset="1" stop-color="#6cc1ab"/></linearGradient><linearGradient id="f" x1="337.62" y1="868.26" x2="874.74" y2="481.49" gradientTransform="translate(-40.87 -22.75) rotate(.97) scale(1.03 .99)" gradientUnits="userSpaceOnUse"><stop offset="0" stop-color="#009fe8"/><stop offset=".13" stop-color="#0d9fd5"/><stop offset=".35" stop-color="#1fa1bd"/><stop offset=".55" stop-color="#2aa1ae"/><stop offset=".71" stop-color="#2ea2aa"/></linearGradient></defs><g id="a"/><g id="b"><g id="c"><g><polygon class="h" points="180.19 109.96 95.26 64.06 0 1151.06 694.06 1329.73 85.04 1112.17 180.19 109.96"/><polygon class="i" points="305.67 58 219.02 12 124.14 1094.28 742.5 1330.55 211.24 1054.44 305.67 58"/><path class="g" d="M337.5,0l-90.96,1038.29,541.28,293.02,96.03-1035L337.5,0Zm393.1,1135.5l-384.4-208.09,5.58-80.38,50.69,27.24,15.78-5.2,51.17-559.94-9.57-19.87-54.37-29.75,3.64-39.84,197.09,106.59-3.27,40.46-62.15-28.85-11.78-.46-52.38,573.12,226.31,126.92,8.21-7.07,1.72-14.95,27.27,13.21-9.54,106.86Z"/></g></g></g></svg>